<?xml version="1.0" encoding="UTF-8" standalone="no"?>
<!-- Created with Inkscape (http://www.inkscape.org/) -->

<svg
   xmlns:dc="http://purl.org/dc/elements/1.1/"
   xmlns:cc="http://creativecommons.org/ns#"
   xmlns:rdf="http://www.w3.org/1999/02/22-rdf-syntax-ns#"
   xmlns:svg="http://www.w3.org/2000/svg"
   xmlns="http://www.w3.org/2000/svg"
   xmlns:sodipodi="http://sodipodi.sourceforge.net/DTD/sodipodi-0.dtd"
   xmlns:inkscape="http://www.inkscape.org/namespaces/inkscape"
   id="svg2"
   version="1.1"
   inkscape:version="0.48.2 r9819"
   width="24"
   height="24"
   xml:space="preserve"
   sodipodi:docname="Shablons_arrow.svg"
   inkscape:export-filename="arrow.png"
   inkscape:export-xdpi="90"
   inkscape:export-ydpi="90"><metadata
     id="metadata8"><rdf:RDF><cc:Work
         rdf:about=""><dc:format>image/svg+xml</dc:format><dc:type
           rdf:resource="http://purl.org/dc/dcmitype/StillImage" /><dc:title></dc:title></cc:Work></rdf:RDF></metadata><defs
     id="defs6"><clipPath
       clipPathUnits="userSpaceOnUse"
       id="clipPath18"><path
         d="M 0,477 580,477 580,0 0,0 0,477 z"
         id="path20"
         inkscape:connector-curvature="0" /></clipPath><clipPath
       clipPathUnits="userSpaceOnUse"
       id="clipPath34"><path
         d="m 49.741,467.194 c -0.731,0 -1.329,-0.598 -1.329,-1.329 l 0,0 0,-18.828 c 0,-0.731 -0.599,-1.329 -1.329,-1.329 l 0,0 -18.827,0 c -0.73,0 -1.329,-0.6 -1.329,-1.329 l 0,0 0,-26.58 c 0,-0.729 0.599,-1.328 1.329,-1.328 l 0,0 18.827,0 c 0.73,0 1.329,-0.598 1.329,-1.329 l 0,0 0,-18.828 c 0,-0.73 0.598,-1.328 1.329,-1.328 l 0,0 26.579,0 c 0.731,0 1.329,0.598 1.329,1.328 l 0,0 0,18.829 c 0,0.73 0.599,1.329 1.33,1.329 l 0,0 18.826,0 c 0.731,0 1.329,0.599 1.329,1.328 l 0,0 0,26.579 c 0,0.731 -0.598,1.33 -1.329,1.33 l 0,0 -18.826,0 c -0.731,0 -1.33,0.598 -1.33,1.329 l 0,0 0,18.827 c 0,0.73 -0.598,1.329 -1.329,1.329 l 0,0 -26.579,0 z"
         id="path36"
         inkscape:connector-curvature="0" /></clipPath><radialGradient
       fx="0"
       fy="0"
       cx="0"
       cy="0"
       r="1"
       gradientUnits="userSpaceOnUse"
       gradientTransform="matrix(-72.089539,0,0,-72.089539,128.09326,434.46582)"
       spreadMethod="pad"
       id="radialGradient42"><stop
         style="stop-opacity:1;stop-color:#ffffff"
         offset="0"
         id="stop44" /><stop
         style="stop-opacity:1;stop-color:#3a9b55"
         offset="1"
         id="stop46" /></radialGradient><clipPath
       clipPathUnits="userSpaceOnUse"
       id="clipPath54"><path
         d="m 50.405,465.199 0,-18.163 c 0,-0.885 -0.345,-1.721 -0.973,-2.347 l 0,0 c -0.628,-0.629 -1.462,-0.975 -2.349,-0.975 l 0,0 -18.162,0 0,-25.25 18.162,0 c 0.886,0 1.72,-0.346 2.349,-0.974 l 0,0 c 0.628,-0.629 0.973,-1.462 0.973,-2.348 l 0,0 0,-18.162 25.251,0 0,18.162 c 0,1.833 1.49,3.322 3.323,3.322 l 0,0 18.162,0 0,25.25 -18.162,0 c -1.833,0 -3.323,1.49 -3.323,3.322 l 0,0 0,18.163 -25.251,0 z"
         id="path56"
         inkscape:connector-curvature="0" /></clipPath><radialGradient
       fx="0"
       fy="0"
       cx="0"
       cy="0"
       r="1"
       gradientUnits="userSpaceOnUse"
       gradientTransform="matrix(-82.615189,0,0,-82.615189,2.8535156,433.58594)"
       spreadMethod="pad"
       id="radialGradient62"><stop
         style="stop-opacity:1;stop-color:#54d66a"
         offset="0"
         id="stop64" /><stop
         style="stop-opacity:1;stop-color:#007e1f"
         offset="1"
         id="stop66" /></radialGradient><clipPath
       clipPathUnits="userSpaceOnUse"
       id="clipPath74"><path
         d="M 0,477 580,477 580,0 0,0 0,477 z"
         id="path76"
         inkscape:connector-curvature="0" /></clipPath><clipPath
       clipPathUnits="userSpaceOnUse"
       id="clipPath94"><path
         d="m 247.346,466.016 -13.313,-13.313 c -0.517,-0.517 -1.363,-0.516 -1.88,0 l 0,0 -13.313,13.313 c -0.516,0.517 -1.363,0.517 -1.879,0 l 0,0 -18.795,-18.795 c -0.516,-0.516 -0.516,-1.362 0.001,-1.879 l 0,0 13.312,-13.313 c 0.517,-0.517 0.517,-1.363 0,-1.879 l 0,0 -13.313,-13.313 c -0.517,-0.517 -0.517,-1.362 0,-1.879 l 0,0 18.794,-18.794 c 0.517,-0.517 1.363,-0.517 1.879,0 l 0,0 13.312,13.313 c 0.518,0.517 1.364,0.516 1.881,0 l 0,0 13.313,-13.313 c 0.517,-0.518 1.363,-0.516 1.878,0 l 0,0 18.795,18.795 c 0.516,0.517 0.518,1.362 0,1.879 l 0,0 -13.311,13.312 c -0.517,0.517 -0.518,1.362 -0.001,1.881 l 0,0 13.313,13.311 c 0.517,0.517 0.517,1.363 0,1.881 l 0,0 -18.794,18.793 c -0.258,0.259 -0.599,0.388 -0.94,0.388 l 0,0 c -0.341,0 -0.681,-0.129 -0.939,-0.388"
         id="path96"
         inkscape:connector-curvature="0" /></clipPath><radialGradient
       fx="0"
       fy="0"
       cx="0"
       cy="0"
       r="1"
       gradientUnits="userSpaceOnUse"
       gradientTransform="matrix(-50.974411,50.974411,-50.974411,-50.974411,281.48096,387.36963)"
       spreadMethod="pad"
       id="radialGradient102"><stop
         style="stop-opacity:1;stop-color:#ffffff"
         offset="0"
         id="stop104" /><stop
         style="stop-opacity:1;stop-color:#3a9b55"
         offset="1"
         id="stop106" /></radialGradient><clipPath
       clipPathUnits="userSpaceOnUse"
       id="clipPath114"><path
         d="m 200.047,446.282 c 0.874,-0.875 12.843,-12.842 12.843,-12.842 l 0,0 c 0.625,-0.626 0.971,-1.461 0.97,-2.349 l 0,0 c 0,-0.89 -0.344,-1.723 -0.97,-2.35 l 0,0 c 0,0 -11.969,-11.967 -12.843,-12.842 l 0,0 c 0.87,-0.872 16.984,-16.985 17.854,-17.856 l 0,0 c 0.875,0.875 12.843,12.842 12.843,12.842 l 0,0 c 1.295,1.296 3.403,1.296 4.698,0 l 0,0 c 0,0 11.968,-11.968 12.843,-12.842 l 0,0 c 0.87,0.871 16.984,16.984 17.855,17.856 l 0,0 -12.842,12.842 c -1.295,1.296 -1.296,3.403 -0.001,4.699 l 0,0 12.842,12.842 c -0.87,0.869 -16.984,16.985 -17.855,17.855 l 0,0 c -0.875,-0.875 -12.842,-12.843 -12.842,-12.843 l 0,0 c -0.626,-0.626 -1.46,-0.972 -2.349,-0.97 l 0,0 c -0.889,-0.001 -1.722,0.344 -2.349,0.971 l 0,0 c 0,0 -11.968,11.968 -12.842,12.843 l 0,0 c -0.871,-0.871 -16.985,-16.987 -17.855,-17.856"
         id="path116"
         inkscape:connector-curvature="0" /></clipPath><radialGradient
       fx="0"
       fy="0"
       cx="0"
       cy="0"
       r="1"
       gradientUnits="userSpaceOnUse"
       gradientTransform="matrix(-58.417206,58.417206,-58.417206,-58.417206,192.30078,475.30518)"
       spreadMethod="pad"
       id="radialGradient122"><stop
         style="stop-opacity:1;stop-color:#54d66a"
         offset="0"
         id="stop124" /><stop
         style="stop-opacity:1;stop-color:#007e1f"
         offset="1"
         id="stop126" /></radialGradient><clipPath
       clipPathUnits="userSpaceOnUse"
       id="clipPath134"><path
         d="M 0,477 580,477 580,0 0,0 0,477 z"
         id="path136"
         inkscape:connector-curvature="0" /></clipPath><clipPath
       clipPathUnits="userSpaceOnUse"
       id="clipPath154"><path
         d="m 114.589,437.741 c -0.893,0 -1.622,-0.731 -1.622,-1.621 l 0,0 0,-24.667 c 0,-0.891 0.73,-1.621 1.622,-1.621 l 0,0 67.635,0 c 0.892,0 1.621,0.73 1.621,1.621 l 0,0 0,24.667 c 0,0.89 -0.73,1.621 -1.621,1.621 l 0,0 -67.635,0 z"
         id="path156"
         inkscape:connector-curvature="0" /></clipPath><radialGradient
       fx="0"
       fy="0"
       cx="0"
       cy="0"
       r="1"
       gradientUnits="userSpaceOnUse"
       gradientTransform="matrix(55.810837,0,0,55.810837,147.86719,390.95996)"
       spreadMethod="pad"
       id="radialGradient162"><stop
         style="stop-opacity:1;stop-color:#ffffff"
         offset="0"
         id="stop164" /><stop
         style="stop-opacity:1;stop-color:#3a9b55"
         offset="1"
         id="stop166" /></radialGradient><clipPath
       clipPathUnits="userSpaceOnUse"
       id="clipPath174"><path
         d="m 115.399,412.264 66.015,0 0,23.046 -66.015,0 0,-23.046 z"
         id="path176"
         inkscape:connector-curvature="0" /></clipPath><radialGradient
       fx="0"
       fy="0"
       cx="0"
       cy="0"
       r="1"
       gradientUnits="userSpaceOnUse"
       gradientTransform="matrix(62.838196,0,0,62.838196,146.11084,470.49512)"
       spreadMethod="pad"
       id="radialGradient182"><stop
         style="stop-opacity:1;stop-color:#54d66a"
         offset="0"
         id="stop184" /><stop
         style="stop-opacity:1;stop-color:#007e1f"
         offset="1"
         id="stop186" /></radialGradient><clipPath
       clipPathUnits="userSpaceOnUse"
       id="clipPath194"><path
         d="M 0,477 580,477 580,0 0,0 0,477 z"
         id="path196"
         inkscape:connector-curvature="0" /></clipPath><clipPath
       clipPathUnits="userSpaceOnUse"
       id="clipPath214"><path
         d="M 346.273,467.419 317.35,438.497 c -1.023,-1.025 -2.703,-1.025 -3.728,0 l 0,0 -11.749,11.749 c -1.026,1.025 -2.702,1.025 -3.729,0 l 0,0 -5.337,-5.338 c -1.026,-1.025 -1.935,-3.049 -2.021,-4.496 l 0,0 -0.627,-10.548 c -0.085,-1.447 0.683,-3.47 1.708,-4.496 l 0,0 4.313,-4.313 c 1.025,-1.025 1.859,-1.869 1.853,-1.875 l 0,0 c -0.007,-0.007 0.827,-0.852 1.852,-1.877 l 0,0 13.714,-13.713 c 1.025,-1.025 2.703,-1.025 3.729,0 l 0,0 46.389,46.389 c 1.024,1.025 1.024,2.703 0,3.728 l 0,0 -13.715,13.712 c -0.512,0.513 -1.187,0.769 -1.863,0.769 l 0,0 c -0.676,0 -1.353,-0.256 -1.866,-0.769"
         id="path216"
         inkscape:connector-curvature="0" /></clipPath><radialGradient
       fx="0"
       fy="0"
       cx="0"
       cy="0"
       r="1"
       gradientUnits="userSpaceOnUse"
       gradientTransform="matrix(76.928879,0,0,76.928879,356.16309,420.40332)"
       spreadMethod="pad"
       id="radialGradient222"><stop
         style="stop-opacity:1;stop-color:#ffffff"
         offset="0"
         id="stop224" /><stop
         style="stop-opacity:1;stop-color:#3a9b55"
         offset="1"
         id="stop226" /></radialGradient><clipPath
       clipPathUnits="userSpaceOnUse"
       id="clipPath234"><path
         d="m 347.517,466.177 -28.924,-28.923 c -0.827,-0.828 -1.931,-1.284 -3.107,-1.284 l 0,0 c -1.176,0 -2.279,0.457 -3.106,1.284 l 0,0 -11.75,11.749 c -0.336,0.336 -0.907,0.336 -1.243,0 l 0,0 -5.338,-5.338 c -0.716,-0.715 -1.449,-2.347 -1.509,-3.357 l 0,0 -0.627,-10.548 c -0.002,-0.042 -0.003,-0.087 -0.003,-0.13 l 0,0 c 0,-0.954 0.559,-2.377 1.199,-3.018 l 0,0 4.314,-4.313 c 1.044,-1.043 1.619,-1.622 1.947,-2.016 l 0,0 c -0.003,0.006 -0.024,0.063 -0.024,0.063 l 0,0 1.782,-1.799 13.714,-13.714 c 0.223,-0.221 0.484,-0.254 0.621,-0.254 l 0,0 c 0.136,0 0.4,0.033 0.622,0.254 l 0,0 46.39,46.389 c 0.336,0.336 0.336,0.906 0,1.243 l 0,0 -13.715,13.714 c -0.222,0.221 -0.483,0.254 -0.62,0.254 l 0,0 c -0.139,-0.002 -0.403,-0.035 -0.623,-0.256"
         id="path236"
         inkscape:connector-curvature="0" /></clipPath><radialGradient
       fx="0"
       fy="0"
       cx="0"
       cy="0"
       r="1"
       gradientUnits="userSpaceOnUse"
       gradientTransform="matrix(57.768539,0,0,57.768539,282.77637,430.07129)"
       spreadMethod="pad"
       id="radialGradient242"><stop
         style="stop-opacity:1;stop-color:#54d66a"
         offset="0"
         id="stop244" /><stop
         style="stop-opacity:1;stop-color:#007e1f"
         offset="1"
         id="stop246" /></radialGradient><clipPath
       clipPathUnits="userSpaceOnUse"
       id="clipPath254"><path
         d="M 0,477 580,477 580,0 0,0 0,477 z"
         id="path256"
         inkscape:connector-curvature="0" /></clipPath><clipPath
       clipPathUnits="userSpaceOnUse"
       id="clipPath274"><path
         d="m 52.013,378.104 c -1.672,0 -3.04,-1.187 -3.04,-2.638 l 0,0 0,-44.859 c 0,-1.45 -1.368,-2.636 -3.039,-2.636 l 0,0 -11.64,0 c -1.671,0 -2.072,-0.839 -0.89,-1.865 l 0,0 28.103,-24.375 c 1.182,-1.025 3.116,-1.025 4.298,0 l 0,0 28.103,24.375 c 1.182,1.025 0.782,1.865 -0.89,1.865 l 0,0 -12.567,0 c -1.671,0 -3.039,1.186 -3.039,2.636 l 0,0 0,44.859 c 0,1.451 -1.369,2.638 -3.039,2.638 l 0,0 -22.36,0 z"
         id="path276"
         inkscape:connector-curvature="0" /></clipPath><radialGradient
       fx="0"
       fy="0"
       cx="0"
       cy="0"
       r="1"
       gradientUnits="userSpaceOnUse"
       gradientTransform="matrix(0,-49.216766,-56.742004,0,63.192383,283.14941)"
       spreadMethod="pad"
       id="radialGradient282"><stop
         style="stop-opacity:1;stop-color:#ffffff"
         offset="0"
         id="stop284" /><stop
         style="stop-opacity:1;stop-color:#3a9b55"
         offset="1"
         id="stop286" /></radialGradient><clipPath
       clipPathUnits="userSpaceOnUse"
       id="clipPath294"><path
         d="m 52.012,376.348 c -0.55,0 -1.013,-0.404 -1.013,-0.881 l 0,0 0,-44.859 c 0,-2.423 -2.273,-4.395 -5.065,-4.395 l 0,0 -9.786,0 c 2.381,-2.066 26.79,-23.239 26.79,-23.239 l 0,0 c 0.196,-0.168 0.457,-0.252 0.718,-0.252 l 0,0 c 0.261,0 0.523,0.084 0.716,0.252 l 0,0 c 0,0 24.41,21.173 26.792,23.239 l 0,0 -10.714,0 c -2.793,0 -5.065,1.973 -5.065,4.395 l 0,0 0,44.859 c 0,0.477 -0.464,0.881 -1.013,0.881 l 0,0 -22.36,0 z"
         id="path296"
         inkscape:connector-curvature="0" /></clipPath><radialGradient
       fx="0"
       fy="0"
       cx="0"
       cy="0"
       r="1"
       gradientUnits="userSpaceOnUse"
       gradientTransform="matrix(0,-104.62648,-120.62386,0,60.827148,401.50391)"
       spreadMethod="pad"
       id="radialGradient302"><stop
         style="stop-opacity:1;stop-color:#54d66a"
         offset="0"
         id="stop304" /><stop
         style="stop-opacity:1;stop-color:#007e1f"
         offset="1"
         id="stop306" /></radialGradient><clipPath
       clipPathUnits="userSpaceOnUse"
       id="clipPath314"><path
         d="M 0,477 580,477 580,0 0,0 0,477 z"
         id="path316"
         inkscape:connector-curvature="0" /></clipPath><clipPath
       clipPathUnits="userSpaceOnUse"
       id="clipPath330"><path
         d="m 145.878,377.334 -28.106,-24.376 c -1.182,-1.025 -0.781,-1.864 0.891,-1.864 l 0,0 12.566,0 c 1.672,0 3.04,-1.186 3.04,-2.637 l 0,0 0,-44.86 c 0,-1.45 1.369,-2.636 3.04,-2.636 l 0,0 22.36,0 c 1.67,0 3.04,1.186 3.04,2.636 l 0,0 0,44.86 c 0,1.451 1.368,2.637 3.039,2.637 l 0,0 11.64,0 c 1.672,0 2.073,0.838 0.891,1.864 l 0,0 -28.103,24.376 c -0.591,0.513 -1.37,0.769 -2.149,0.769 l 0,0 c -0.779,0 -1.558,-0.256 -2.149,-0.769"
         id="path332"
         inkscape:connector-curvature="0" /></clipPath><radialGradient
       fx="0"
       fy="0"
       cx="0"
       cy="0"
       r="1"
       gradientUnits="userSpaceOnUse"
       gradientTransform="matrix(0,49.217606,56.742981,0,148.49512,395.92676)"
       spreadMethod="pad"
       id="radialGradient338"><stop
         style="stop-opacity:1;stop-color:#ffffff"
         offset="0"
         id="stop340" /><stop
         style="stop-opacity:1;stop-color:#3a9b55"
         offset="1"
         id="stop342" /></radialGradient><clipPath
       clipPathUnits="userSpaceOnUse"
       id="clipPath350"><path
         d="m 147.311,376.092 c 0,0 -24.41,-21.173 -26.792,-23.239 l 0,0 10.713,0 c 2.793,0 5.066,-1.972 5.066,-4.395 l 0,0 0,-44.86 c 0,-0.475 0.464,-0.879 1.013,-0.879 l 0,0 22.359,0 c 0.55,0 1.014,0.403 1.014,0.879 l 0,0 0,44.86 c 0,2.423 2.272,4.394 5.065,4.394 l 0,0 9.787,0 c -2.381,2.066 -26.791,23.239 -26.791,23.239 l 0,0 c -0.195,0.168 -0.456,0.253 -0.718,0.253 l 0,0 c -0.26,0 -0.522,-0.085 -0.716,-0.252"
         id="path352"
         inkscape:connector-curvature="0" /></clipPath><radialGradient
       fx="0"
       fy="0"
       cx="0"
       cy="0"
       r="1"
       gradientUnits="userSpaceOnUse"
       gradientTransform="matrix(0,104.62869,120.62642,0,150.85986,277.56934)"
       spreadMethod="pad"
       id="radialGradient358"><stop
         style="stop-opacity:1;stop-color:#54d66a"
         offset="0"
         id="stop360" /><stop
         style="stop-opacity:1;stop-color:#007e1f"
         offset="1"
         id="stop362" /></radialGradient><clipPath
       clipPathUnits="userSpaceOnUse"
       id="clipPath370"><path
         d="M 0,477 580,477 580,0 0,0 0,477 z"
         id="path372"
         inkscape:connector-curvature="0" /></clipPath><clipPath
       clipPathUnits="userSpaceOnUse"
       id="clipPath386"><path
         d="m 212.703,374.383 -15.812,-15.81 c -1.181,-1.182 -1.31,-2.989 -0.284,-4.015 l 0,0 31.721,-31.721 c 1.026,-1.025 0.897,-2.831 -0.284,-4.013 l 0,0 -8.231,-8.23 c -1.181,-1.182 -0.872,-2.058 0.689,-1.948 l 0,0 37.108,2.635 c 1.56,0.111 2.929,1.48 3.039,3.039 l 0,0 2.636,37.11 c 0.111,1.56 -0.766,1.87 -1.948,0.688 l 0,0 -8.886,-8.886 c -1.182,-1.183 -2.989,-1.31 -4.014,-0.284 l 0,0 -31.722,31.72 c -0.464,0.465 -1.088,0.693 -1.743,0.693 l 0,0 c -0.789,0 -1.622,-0.332 -2.269,-0.978"
         id="path388"
         inkscape:connector-curvature="0" /></clipPath><radialGradient
       fx="0"
       fy="0"
       cx="0"
       cy="0"
       r="1"
       gradientUnits="userSpaceOnUse"
       gradientTransform="matrix(34.801773,-34.801758,-40.122192,-40.122192,271.68896,299.2002)"
       spreadMethod="pad"
       id="radialGradient394"><stop
         style="stop-opacity:1;stop-color:#ffffff"
         offset="0"
         id="stop396" /><stop
         style="stop-opacity:1;stop-color:#3a9b55"
         offset="1"
         id="stop398" /></radialGradient><clipPath
       clipPathUnits="userSpaceOnUse"
       id="clipPath406"><path
         d="m 213.947,373.139 -15.811,-15.811 c -0.388,-0.388 -0.432,-1.001 -0.095,-1.338 l 0,0 31.721,-31.72 c 1.713,-1.713 1.5,-4.713 -0.475,-6.689 l 0,0 c 0,0 -5.069,-5.067 -6.92,-6.92 l 0,0 c 3.144,0.222 35.376,2.511 35.376,2.511 l 0,0 c 0.257,0.018 0.501,0.144 0.687,0.328 l 0,0 c 0.184,0.186 0.309,0.431 0.328,0.686 l 0,0 c 0,0 2.289,32.232 2.512,35.377 l 0,0 c -1.904,-1.904 -7.576,-7.576 -7.576,-7.576 l 0,0 c -1.975,-1.974 -4.976,-2.188 -6.689,-0.474 l 0,0 -31.72,31.721 c -0.152,0.152 -0.362,0.227 -0.581,0.227 l 0,0 c -0.265,0 -0.545,-0.109 -0.757,-0.322"
         id="path408"
         inkscape:connector-curvature="0" /></clipPath><radialGradient
       fx="0"
       fy="0"
       cx="0"
       cy="0"
       r="1"
       gradientUnits="userSpaceOnUse"
       gradientTransform="matrix(73.982178,-73.982178,-85.292419,-85.292419,186.32959,381.21631)"
       spreadMethod="pad"
       id="radialGradient414"><stop
         style="stop-opacity:1;stop-color:#54d66a"
         offset="0"
         id="stop416" /><stop
         style="stop-opacity:1;stop-color:#007e1f"
         offset="1"
         id="stop418" /></radialGradient><clipPath
       clipPathUnits="userSpaceOnUse"
       id="clipPath426"><path
         d="M 0,477 580,477 580,0 0,0 0,477 z"
         id="path428"
         inkscape:connector-curvature="0" /></clipPath><clipPath
       clipPathUnits="userSpaceOnUse"
       id="clipPath442"><path
         d="m 338.445,375.324 -31.721,-31.721 c -1.025,-1.026 -2.831,-0.897 -4.012,0.284 l 0,0 -8.231,8.231 c -1.181,1.181 -2.058,0.872 -1.947,-0.689 l 0,0 2.634,-37.109 c 0.113,-1.559 1.48,-2.928 3.041,-3.038 l 0,0 37.109,-2.635 c 1.559,-0.11 1.87,0.766 0.687,1.948 l 0,0 -8.886,8.885 c -1.182,1.182 -1.31,2.989 -0.284,4.014 l 0,0 31.72,31.721 c 1.027,1.025 0.898,2.831 -0.284,4.013 l 0,0 -15.811,15.811 c -0.647,0.647 -1.479,0.978 -2.269,0.978 l 0,0 c -0.655,0 -1.281,-0.228 -1.746,-0.693"
         id="path444"
         inkscape:connector-curvature="0" /></clipPath><radialGradient
       fx="0"
       fy="0"
       cx="0"
       cy="0"
       r="1"
       gradientUnits="userSpaceOnUse"
       gradientTransform="matrix(-34.801788,-34.801788,-40.122223,40.122223,283.08789,300.24023)"
       spreadMethod="pad"
       id="radialGradient450"><stop
         style="stop-opacity:1;stop-color:#ffffff"
         offset="0"
         id="stop452" /><stop
         style="stop-opacity:1;stop-color:#3a9b55"
         offset="1"
         id="stop454" /></radialGradient><clipPath
       clipPathUnits="userSpaceOnUse"
       id="clipPath462"><path
         d="m 339.879,373.89 -31.72,-31.72 c -1.713,-1.714 -4.712,-1.501 -6.69,0.474 l 0,0 c 0,0 -5.067,5.068 -6.919,6.92 l 0,0 c 0.222,-3.144 2.512,-35.376 2.512,-35.376 l 0,0 c 0.018,-0.256 0.143,-0.501 0.329,-0.687 l 0,0 c 0.184,-0.183 0.428,-0.309 0.685,-0.327 l 0,0 c 0,0 32.23,-2.289 35.377,-2.512 l 0,0 c -1.903,1.903 -7.575,7.576 -7.575,7.576 l 0,0 c -1.976,1.974 -2.189,4.974 -0.476,6.689 l 0,0 31.722,31.72 c 0.335,0.337 0.292,0.949 -0.096,1.338 l 0,0 -15.81,15.81 c -0.214,0.213 -0.494,0.322 -0.759,0.322 l 0,0 c -0.219,0 -0.428,-0.075 -0.58,-0.227"
         id="path464"
         inkscape:connector-curvature="0" /></clipPath><radialGradient
       fx="0"
       fy="0"
       cx="0"
       cy="0"
       r="1"
       gradientUnits="userSpaceOnUse"
       gradientTransform="matrix(-73.982803,-73.982803,-85.293137,85.293152,365.10742,385.59863)"
       spreadMethod="pad"
       id="radialGradient470"><stop
         style="stop-opacity:1;stop-color:#54d66a"
         offset="0"
         id="stop472" /><stop
         style="stop-opacity:1;stop-color:#007e1f"
         offset="1"
         id="stop474" /></radialGradient><clipPath
       clipPathUnits="userSpaceOnUse"
       id="clipPath482"><path
         d="M 0,477 580,477 580,0 0,0 0,477 z"
         id="path484"
         inkscape:connector-curvature="0" /></clipPath><clipPath
       clipPathUnits="userSpaceOnUse"
       id="clipPath498"><path
         d="m 421.121,375.677 -37.109,-2.635 c -1.56,-0.111 -2.929,-1.479 -3.039,-3.039 l 0,0 -2.636,-37.109 c -0.11,-1.56 0.766,-1.871 1.948,-0.688 l 0,0 8.886,8.886 c 1.182,1.182 2.99,1.309 4.015,0.284 l 0,0 31.72,-31.72 c 1.025,-1.027 2.832,-0.898 4.014,0.285 l 0,0 15.811,15.811 c 1.181,1.182 1.31,2.988 0.284,4.014 l 0,0 -31.722,31.72 c -1.026,1.025 -0.897,2.829 0.286,4.013 l 0,0 8.229,8.23 c 1.115,1.115 0.903,1.957 -0.433,1.957 l 0,0 c -0.081,0 -0.166,-0.003 -0.254,-0.009"
         id="path500"
         inkscape:connector-curvature="0" /></clipPath><radialGradient
       fx="0"
       fy="0"
       cx="0"
       cy="0"
       r="1"
       gradientUnits="userSpaceOnUse"
       gradientTransform="matrix(-34.802383,34.802383,40.12291,40.12291,369.92676,385.12451)"
       spreadMethod="pad"
       id="radialGradient506"><stop
         style="stop-opacity:1;stop-color:#ffffff"
         offset="0"
         id="stop508" /><stop
         style="stop-opacity:1;stop-color:#3a9b55"
         offset="1"
         id="stop510" /></radialGradient><clipPath
       clipPathUnits="userSpaceOnUse"
       id="clipPath518"><path
         d="m 383.879,371.15 c -0.257,-0.018 -0.502,-0.143 -0.686,-0.328 l 0,0 c -0.185,-0.185 -0.311,-0.429 -0.328,-0.685 l 0,0 c 0,0 -2.29,-32.232 -2.513,-35.378 l 0,0 c 1.904,1.904 7.575,7.576 7.575,7.576 l 0,0 c 1.975,1.975 4.976,2.188 6.691,0.475 l 0,0 31.718,-31.721 c 0.338,-0.335 0.95,-0.292 1.339,0.096 l 0,0 15.812,15.81 c 0.388,0.388 0.431,1.002 0.095,1.338 l 0,0 -31.721,31.72 c -1.714,1.713 -1.501,4.713 0.474,6.689 l 0,0 c 0,0 5.068,5.068 6.92,6.919 l 0,0 c -3.144,-0.222 -35.376,-2.511 -35.376,-2.511"
         id="path520"
         inkscape:connector-curvature="0" /></clipPath><radialGradient
       fx="0"
       fy="0"
       cx="0"
       cy="0"
       r="1"
       gradientUnits="userSpaceOnUse"
       gradientTransform="matrix(-73.981476,73.981476,85.291611,85.291611,455.28906,303.10693)"
       spreadMethod="pad"
       id="radialGradient526"><stop
         style="stop-opacity:1;stop-color:#54d66a"
         offset="0"
         id="stop528" /><stop
         style="stop-opacity:1;stop-color:#007e1f"
         offset="1"
         id="stop530" /></radialGradient><clipPath
       clipPathUnits="userSpaceOnUse"
       id="clipPath538"><path
         d="M 0,477 580,477 580,0 0,0 0,477 z"
         id="path540"
         inkscape:connector-curvature="0" /></clipPath><clipPath
       clipPathUnits="userSpaceOnUse"
       id="clipPath554"><path
         d="m 492.422,374.058 8.887,-8.886 c 1.181,-1.181 1.31,-2.989 0.283,-4.014 l 0,0 -31.72,-31.72 c -1.027,-1.026 -0.898,-2.831 0.285,-4.014 l 0,0 15.811,-15.811 c 1.182,-1.181 2.988,-1.31 4.014,-0.284 l 0,0 31.721,31.72 c 1.025,1.027 2.831,0.897 4.013,-0.284 l 0,0 8.231,-8.231 c 1.179,-1.181 2.056,-0.873 1.945,0.688 l 0,0 -2.634,37.108 c -0.112,1.56 -1.479,2.929 -3.039,3.04 l 0,0 -37.108,2.636 c -0.09,0.006 -0.176,0.009 -0.257,0.009 l 0,0 c -1.334,0 -1.546,-0.843 -0.432,-1.957"
         id="path556"
         inkscape:connector-curvature="0" /></clipPath><radialGradient
       fx="0"
       fy="0"
       cx="0"
       cy="0"
       r="1"
       gradientUnits="userSpaceOnUse"
       gradientTransform="matrix(34.800217,34.800217,40.120392,-40.120392,545.33301,384.41113)"
       spreadMethod="pad"
       id="radialGradient562"><stop
         style="stop-opacity:1;stop-color:#ffffff"
         offset="0"
         id="stop564" /><stop
         style="stop-opacity:1;stop-color:#3a9b55"
         offset="1"
         id="stop566" /></radialGradient><clipPath
       clipPathUnits="userSpaceOnUse"
       id="clipPath574"><path
         d="m 502.55,366.414 c 1.976,-1.974 2.188,-4.976 0.475,-6.689 l 0,0 -31.721,-31.72 c -0.335,-0.337 -0.293,-0.949 0.095,-1.338 l 0,0 15.811,-15.812 c 0.389,-0.387 1.002,-0.431 1.339,-0.094 l 0,0 31.719,31.721 c 1.714,1.713 4.715,1.5 6.69,-0.475 l 0,0 c 0,0 5.067,-5.068 6.919,-6.92 l 0,0 c -0.222,3.144 -2.51,35.375 -2.51,35.375 l 0,0 c -0.019,0.258 -0.145,0.502 -0.329,0.687 l 0,0 c -0.186,0.185 -0.429,0.311 -0.685,0.329 l 0,0 c 0,0 -32.232,2.289 -35.378,2.513 l 0,0 c 1.903,-1.905 7.575,-7.577 7.575,-7.577"
         id="path576"
         inkscape:connector-curvature="0" /></clipPath><radialGradient
       fx="0"
       fy="0"
       cx="0"
       cy="0"
       r="1"
       gradientUnits="userSpaceOnUse"
       gradientTransform="matrix(73.981537,73.981537,85.291687,-85.291687,463.31738,299.05371)"
       spreadMethod="pad"
       id="radialGradient582"><stop
         style="stop-opacity:1;stop-color:#54d66a"
         offset="0"
         id="stop584" /><stop
         style="stop-opacity:1;stop-color:#007e1f"
         offset="1"
         id="stop586" /></radialGradient><clipPath
       clipPathUnits="userSpaceOnUse"
       id="clipPath594"><path
         d="M 0,477 580,477 580,0 0,0 0,477 z"
         id="path596"
         inkscape:connector-curvature="0" /></clipPath><clipPath
       clipPathUnits="userSpaceOnUse"
       id="clipPath614"><path
         d="m 490.549,470.41 -24.375,-28.103 c -1.024,-1.182 -1.024,-3.117 0,-4.299 l 0,0 24.375,-28.102 c 1.026,-1.182 1.865,-0.781 1.865,0.89 l 0,0 0,12.567 c 0,1.672 1.186,3.04 2.636,3.04 l 0,0 44.86,0 c 1.452,0 2.637,1.368 2.637,3.039 l 0,0 0,22.36 c 0,1.671 -1.185,3.039 -2.637,3.039 l 0,0 -44.86,0 c -1.45,0 -2.636,1.368 -2.636,3.038 l 0,0 0,11.641 c 0,1.022 -0.314,1.569 -0.792,1.569 l 0,0 c -0.304,0 -0.674,-0.22 -1.073,-0.679"
         id="path616"
         inkscape:connector-curvature="0" /></clipPath><radialGradient
       fx="0"
       fy="0"
       cx="0"
       cy="0"
       r="1"
       gradientUnits="userSpaceOnUse"
       gradientTransform="matrix(-49.218201,0,0,56.743668,447.59082,440.61182)"
       spreadMethod="pad"
       id="radialGradient622"><stop
         style="stop-opacity:1;stop-color:#ffffff"
         offset="0"
         id="stop624" /><stop
         style="stop-opacity:1;stop-color:#3a9b55"
         offset="1"
         id="stop626" /></radialGradient><clipPath
       clipPathUnits="userSpaceOnUse"
       id="clipPath634"><path
         d="m 467.418,440.875 c -0.169,-0.195 -0.254,-0.456 -0.254,-0.716 l 0,0 c 0,-0.263 0.085,-0.524 0.253,-0.718 l 0,0 c 0,0 21.173,-24.411 23.24,-26.792 l 0,0 0,10.713 c 0,2.793 1.971,5.066 4.393,5.066 l 0,0 44.86,0 c 0.477,0 0.879,0.464 0.879,1.013 l 0,0 0,22.36 c 0,0.55 -0.402,1.013 -0.879,1.013 l 0,0 -44.86,0 c -2.422,0 -4.393,2.273 -4.393,5.065 l 0,0 0,9.786 c -2.066,-2.38 -23.239,-26.79 -23.239,-26.79"
         id="path636"
         inkscape:connector-curvature="0" /></clipPath><radialGradient
       fx="0"
       fy="0"
       cx="0"
       cy="0"
       r="1"
       gradientUnits="userSpaceOnUse"
       gradientTransform="matrix(-104.62758,0,0,120.62515,565.94629,442.97559)"
       spreadMethod="pad"
       id="radialGradient642"><stop
         style="stop-opacity:1;stop-color:#54d66a"
         offset="0"
         id="stop644" /><stop
         style="stop-opacity:1;stop-color:#007e1f"
         offset="1"
         id="stop646" /></radialGradient><clipPath
       clipPathUnits="userSpaceOnUse"
       id="clipPath654"><path
         d="M 0,477 580,477 580,0 0,0 0,477 z"
         id="path656"
         inkscape:connector-curvature="0" /></clipPath><clipPath
       clipPathUnits="userSpaceOnUse"
       id="clipPath674"><path
         d="m 429.409,469.517 0,-11.642 c 0,-1.671 -1.187,-3.039 -2.636,-3.039 l 0,0 -44.861,0 c -1.451,0 -2.636,-1.368 -2.636,-3.039 l 0,0 0,-22.36 c 0,-1.671 1.185,-3.04 2.636,-3.04 l 0,0 44.86,0 c 1.45,0 2.637,-1.367 2.637,-3.038 l 0,0 0,-12.567 c 0,-1.672 0.839,-2.072 1.863,-0.892 l 0,0 24.376,28.105 c 1.025,1.181 1.025,3.115 0,4.297 l 0,0 -24.375,28.105 c -0.398,0.458 -0.768,0.678 -1.072,0.678 l 0,0 c -0.478,0.001 -0.792,-0.546 -0.792,-1.568"
         id="path676"
         inkscape:connector-curvature="0" /></clipPath><radialGradient
       fx="0"
       fy="0"
       cx="0"
       cy="0"
       r="1"
       gradientUnits="userSpaceOnUse"
       gradientTransform="matrix(49.218201,0,0,56.743668,474.23145,440.60791)"
       spreadMethod="pad"
       id="radialGradient682"><stop
         style="stop-opacity:1;stop-color:#ffffff"
         offset="0"
         id="stop684" /><stop
         style="stop-opacity:1;stop-color:#3a9b55"
         offset="1"
         id="stop686" /></radialGradient><clipPath
       clipPathUnits="userSpaceOnUse"
       id="clipPath694"><path
         d="m 431.167,457.876 c 0,-2.793 -1.971,-5.065 -4.394,-5.065 l 0,0 -44.861,0 c -0.477,0 -0.879,-0.463 -0.879,-1.013 l 0,0 0,-22.36 c 0,-0.549 0.402,-1.013 0.879,-1.013 l 0,0 44.86,0 c 2.424,0 4.395,-2.272 4.395,-5.065 l 0,0 0,-10.714 c 2.066,2.381 23.239,26.792 23.239,26.792 l 0,0 c 0.168,0.194 0.252,0.455 0.252,0.717 l 0,0 c 0,0.261 -0.084,0.522 -0.253,0.717 l 0,0 c 0,0 -21.173,24.41 -23.238,26.791 l 0,0 0,-9.787 z"
         id="path696"
         inkscape:connector-curvature="0" /></clipPath><radialGradient
       fx="0"
       fy="0"
       cx="0"
       cy="0"
       r="1"
       gradientUnits="userSpaceOnUse"
       gradientTransform="matrix(104.6279,0,0,120.6255,355.87598,442.97217)"
       spreadMethod="pad"
       id="radialGradient702"><stop
         style="stop-opacity:1;stop-color:#54d66a"
         offset="0"
         id="stop704" /><stop
         style="stop-opacity:1;stop-color:#007e1f"
         offset="1"
         id="stop706" /></radialGradient><clipPath
       clipPathUnits="userSpaceOnUse"
       id="clipPath714"><path
         d="M 0,477 580,477 580,0 0,0 0,477 z"
         id="path716"
         inkscape:connector-curvature="0" /></clipPath><clipPath
       clipPathUnits="userSpaceOnUse"
       id="clipPath730"><path
         d="m 47.531,277.076 -9.144,-10.847 c -1.945,-2.308 -3.81,-6.006 -3.769,-8.443 l 0,0 c -0.105,-0.8 -2.231,-18.147 5.646,-24.787 l 0,0 15.493,-13.06 c 0.277,-0.232 0.279,-0.862 -0.135,-1.354 l 0,0 -6.566,-7.791 c -1.243,-1.474 -0.93,-2.578 -0.633,-3.106 l 0,0 c 0.083,-0.146 0.228,-0.356 0.464,-0.557 l 0,0 c 0.428,-0.358 1.152,-0.679 2.33,-0.495 l 0,0 32.167,5.059 c 2.119,0.336 3.755,2.276 3.724,4.419 l 0,0 -0.461,32.559 c -0.017,1.192 -0.455,1.851 -0.882,2.213 l 0,0 c -0.236,0.198 -0.469,0.307 -0.626,0.363 l 0,0 c -0.571,0.204 -1.713,0.325 -2.955,-1.15 l 0,0 -7.09,-8.411 c -0.414,-0.49 -1.034,-0.596 -1.311,-0.362 l 0,0 -15.591,13.14 c -6.246,5.265 -4.854,18.532 -4.685,19.951 l 0,0 c 0.349,0.965 1.08,3.22 -0.292,4.377 l 0,0 c -0.1,0.084 -0.209,0.161 -0.331,0.232 l 0,0 c -0.378,0.22 -0.783,0.312 -1.194,0.312 l 0,0 c -1.823,0 -3.776,-1.807 -4.159,-2.262"
         id="path732"
         inkscape:connector-curvature="0" /></clipPath><radialGradient
       fx="0"
       fy="0"
       cx="0"
       cy="0"
       r="1"
       gradientUnits="userSpaceOnUse"
       gradientTransform="matrix(43.999115,52.198181,-52.198181,43.999115,90.45459,205.31738)"
       spreadMethod="pad"
       id="radialGradient738"><stop
         style="stop-opacity:1;stop-color:#ffffff"
         offset="0"
         id="stop740" /><stop
         style="stop-opacity:1;stop-color:#3a9b55"
         offset="1"
         id="stop742" /></radialGradient><clipPath
       clipPathUnits="userSpaceOnUse"
       id="clipPath750"><path
         d="m 48.707,276.085 -9.143,-10.85 c -1.889,-2.24 -3.589,-5.795 -3.42,-7.637 l 0,0 c 0,0 -2.231,-17.236 5.112,-23.425 l 0,0 c 7.662,-6.459 15.493,-13.056 15.493,-13.056 l 0,0 c 0.97,-0.82 0.992,-2.405 0.05,-3.523 l 0,0 -6.566,-7.79 c -0.942,-1.118 -0.608,-1.859 0.746,-1.646 l 0,0 32.167,5.057 c 1.353,0.215 2.444,1.51 2.424,2.877 l 0,0 -0.461,32.558 c -0.02,1.369 -0.807,1.576 -1.75,0.456 l 0,0 -7.089,-8.411 c -0.942,-1.118 -2.508,-1.364 -3.479,-0.547 l 0,0 c 0,0 -7.897,6.657 -15.591,13.142 l 0,0 c -7.308,6.16 -5.199,21.483 -5.199,21.483 l 0,0 c 0.845,2.298 0.458,3.022 -0.31,3.022 l 0,0 c -0.945,0 -2.465,-1.094 -2.984,-1.71"
         id="path752"
         inkscape:connector-curvature="0" /></clipPath><radialGradient
       fx="0"
       fy="0"
       cx="0"
       cy="0"
       r="1"
       gradientUnits="userSpaceOnUse"
       gradientTransform="matrix(43.509491,-36.675201,-42.280335,-50.161667,39.895508,258.97266)"
       spreadMethod="pad"
       id="radialGradient758"><stop
         style="stop-opacity:1;stop-color:#54d66a"
         offset="0"
         id="stop760" /><stop
         style="stop-opacity:1;stop-color:#007e1f"
         offset="1"
         id="stop762" /></radialGradient><clipPath
       clipPathUnits="userSpaceOnUse"
       id="clipPath770"><path
         d="M 0,477 580,477 580,0 0,0 0,477 z"
         id="path772"
         inkscape:connector-curvature="0" /></clipPath><clipPath
       clipPathUnits="userSpaceOnUse"
       id="clipPath786"><path
         d="m 246.311,153.248 c -2.354,-0.348 -2.953,-4.131 -2.974,-4.861 l 0,0 -0.393,-14.182 c -0.081,-3.017 0.764,-7.071 2.313,-8.952 l 0,0 c 0.418,-0.69 9.562,-15.586 19.861,-15.873 l 0,0 20.255,-0.562 c 0.362,-0.012 0.755,-0.501 0.738,-1.144 l 0,0 -0.283,-10.186 c -0.056,-1.925 0.878,-2.597 1.439,-2.823 l 0,0 c 0.156,-0.063 0.401,-0.138 0.708,-0.145 l 0,0 c 0.56,-0.016 1.326,0.184 2.132,1.062 l 0,0 22.012,23.997 c 1.447,1.581 1.518,4.118 0.16,5.775 l 0,0 -20.645,25.182 c -0.756,0.922 -1.509,1.165 -2.069,1.182 l 0,0 c -0.307,0.009 -0.558,-0.053 -0.716,-0.107 l 0,0 c -0.573,-0.194 -1.542,-0.812 -1.596,-2.739 l 0,0 -0.306,-10.995 c -0.018,-0.642 -0.438,-1.109 -0.8,-1.101 l 0,0 -20.381,0.566 c -8.166,0.227 -15.342,11.472 -16.095,12.687 l 0,0 c -0.328,0.974 -1.161,3.193 -2.956,3.243 l 0,0 c -0.02,0 -0.04,0.001 -0.061,0.001 l 0,0 c -0.111,0 -0.224,-0.009 -0.343,-0.025"
         id="path788"
         inkscape:connector-curvature="0" /></clipPath><radialGradient
       fx="0"
       fy="0"
       cx="0"
       cy="0"
       r="1"
       gradientUnits="userSpaceOnUse"
       gradientTransform="matrix(1.8978882,68.24205,-68.24205,1.8978882,321.30469,119.15332)"
       spreadMethod="pad"
       id="radialGradient794"><stop
         style="stop-opacity:1;stop-color:#ffffff"
         offset="0"
         id="stop796" /><stop
         style="stop-opacity:1;stop-color:#3a9b55"
         offset="1"
         id="stop798" /></radialGradient><clipPath
       clipPathUnits="userSpaceOnUse"
       id="clipPath806"><path
         d="m 244.881,148.348 -0.394,-14.185 c -0.082,-2.929 0.803,-6.769 2.084,-8.104 l 0,0 c 0,0 8.991,-14.874 18.592,-15.14 l 0,0 c 10.017,-0.278 20.253,-0.562 20.253,-0.562 l 0,0 c 1.269,-0.036 2.273,-1.262 2.233,-2.723 l 0,0 -0.283,-10.186 c -0.04,-1.464 0.682,-1.833 1.609,-0.825 l 0,0 22.01,23.997 c 0.926,1.01 0.974,2.703 0.105,3.761 l 0,0 -20.643,25.184 c -0.867,1.058 -1.611,0.729 -1.652,-0.733 l 0,0 -0.305,-10.997 c -0.041,-1.462 -1.112,-2.63 -2.381,-2.596 l 0,0 c 0,0 -10.323,0.287 -20.382,0.567 l 0,0 c -9.556,0.265 -17.451,13.565 -17.451,13.565 l 0,0 c -0.578,1.742 -1.146,2.362 -1.648,2.362 l 0,0 c -0.99,-0.001 -1.72,-2.416 -1.747,-3.385"
         id="path808"
         inkscape:connector-curvature="0" /></clipPath><radialGradient
       fx="0"
       fy="0"
       cx="0"
       cy="0"
       r="1"
       gradientUnits="userSpaceOnUse"
       gradientTransform="matrix(56.882355,-1.581955,-1.8209686,-65.577454,248.10693,129.57715)"
       spreadMethod="pad"
       id="radialGradient814"><stop
         style="stop-opacity:1;stop-color:#54d66a"
         offset="0"
         id="stop816" /><stop
         style="stop-opacity:1;stop-color:#007e1f"
         offset="1"
         id="stop818" /></radialGradient><clipPath
       clipPathUnits="userSpaceOnUse"
       id="clipPath826"><path
         d="M 0,477 580,477 580,0 0,0 0,477 z"
         id="path828"
         inkscape:connector-curvature="0" /></clipPath><clipPath
       clipPathUnits="userSpaceOnUse"
       id="clipPath842"><path
         d="m 266.078,201.428 -22.012,-23.997 c -1.447,-1.582 -1.519,-4.119 -0.161,-5.776 l 0,0 20.645,-25.183 c 0.756,-0.921 1.51,-1.163 2.07,-1.182 l 0,0 c 0.307,-0.007 0.558,0.054 0.716,0.107 l 0,0 c 0.573,0.196 1.542,0.813 1.596,2.742 l 0,0 0.306,10.993 c 0.018,0.643 0.438,1.111 0.8,1.102 l 0,0 20.382,-0.567 c 8.166,-0.228 15.342,-11.472 16.094,-12.689 l 0,0 c 0.328,-0.972 1.162,-3.191 2.955,-3.242 l 0,0 c 0.129,-0.002 0.264,0.007 0.405,0.025 l 0,0 c 2.352,0.349 2.953,4.132 2.971,4.861 l 0,0 0.396,14.183 c 0.081,3.015 -0.765,7.07 -2.314,8.95 l 0,0 c -0.416,0.69 -9.561,15.587 -19.859,15.873 l 0,0 -20.255,0.561 c -0.362,0.013 -0.754,0.504 -0.737,1.145 l 0,0 0.282,10.185 c 0.054,1.928 -0.879,2.598 -1.44,2.824 l 0,0 c -0.156,0.064 -0.401,0.139 -0.708,0.147 l 0,0 c -0.02,0.001 -0.04,0.001 -0.061,0.001 l 0,0 c -0.553,0 -1.293,-0.218 -2.071,-1.063"
         id="path844"
         inkscape:connector-curvature="0" /></clipPath><radialGradient
       fx="0"
       fy="0"
       cx="0"
       cy="0"
       r="1"
       gradientUnits="userSpaceOnUse"
       gradientTransform="matrix(-1.8979034,-68.242477,68.242477,-1.8979034,234.88281,177.85156)"
       spreadMethod="pad"
       id="radialGradient850"><stop
         style="stop-opacity:1;stop-color:#ffffff"
         offset="0"
         id="stop852" /><stop
         style="stop-opacity:1;stop-color:#3a9b55"
         offset="1"
         id="stop854" /></radialGradient><clipPath
       clipPathUnits="userSpaceOnUse"
       id="clipPath862"><path
         d="m 267.211,200.385 -22.01,-23.997 c -0.926,-1.01 -0.974,-2.702 -0.106,-3.761 l 0,0 20.643,-25.184 c 0.868,-1.058 1.611,-0.73 1.652,0.733 l 0,0 0.306,10.996 c 0.041,1.463 1.112,2.631 2.381,2.596 l 0,0 c 0,0 10.323,-0.287 20.382,-0.567 l 0,0 c 9.555,-0.266 17.451,-13.565 17.451,-13.565 l 0,0 c 1.717,-5.179 3.352,-0.437 3.394,1.024 l 0,0 0.395,14.185 c 0.08,2.929 -0.805,6.768 -2.084,8.105 l 0,0 c 0,0 -8.991,14.872 -18.592,15.139 l 0,0 c -10.017,0.279 -20.254,0.561 -20.254,0.561 l 0,0 c -1.269,0.038 -2.273,1.264 -2.233,2.725 l 0,0 0.284,10.186 c 0.025,0.905 -0.243,1.393 -0.67,1.393 l 0,0 c -0.263,0 -0.586,-0.185 -0.939,-0.569"
         id="path864"
         inkscape:connector-curvature="0" /></clipPath><radialGradient
       fx="0"
       fy="0"
       cx="0"
       cy="0"
       r="1"
       gradientUnits="userSpaceOnUse"
       gradientTransform="matrix(-56.882935,1.5819855,1.8209839,65.57814,308.07324,167.4248)"
       spreadMethod="pad"
       id="radialGradient870"><stop
         style="stop-opacity:1;stop-color:#54d66a"
         offset="0"
         id="stop872" /><stop
         style="stop-opacity:1;stop-color:#007e1f"
         offset="1"
         id="stop874" /></radialGradient><clipPath
       clipPathUnits="userSpaceOnUse"
       id="clipPath882"><path
         d="M 0,477 580,477 580,0 0,0 0,477 z"
         id="path884"
         inkscape:connector-curvature="0" /></clipPath><clipPath
       clipPathUnits="userSpaceOnUse"
       id="clipPath898"><path
         d="m 419.786,157.226 c -1.794,-0.05 -2.626,-2.269 -2.955,-3.241 l 0,0 c -0.752,-1.217 -7.927,-12.462 -16.093,-12.689 l 0,0 -20.382,-0.567 c -0.363,-0.009 -0.783,0.459 -0.802,1.102 l 0,0 -0.305,10.994 c -0.054,1.928 -1.022,2.545 -1.596,2.742 l 0,0 c -0.158,0.052 -0.408,0.115 -0.716,0.106 l 0,0 c -0.559,-0.019 -1.313,-0.261 -2.069,-1.183 l 0,0 -20.645,-25.182 c -1.358,-1.657 -1.288,-4.194 0.162,-5.776 l 0,0 22.011,-23.996 c 0.807,-0.878 1.572,-1.079 2.132,-1.063 l 0,0 c 0.308,0.009 0.553,0.083 0.709,0.146 l 0,0 c 0.561,0.227 1.494,0.897 1.44,2.824 l 0,0 -0.284,10.186 c -0.018,0.642 0.376,1.133 0.738,1.145 l 0,0 20.254,0.561 c 10.298,0.286 19.443,15.182 19.86,15.873 l 0,0 c 1.55,1.881 2.396,5.937 2.313,8.95 l 0,0 -0.395,14.183 c -0.02,0.729 -0.618,4.513 -2.971,4.861 l 0,0 c -0.119,0.016 -0.232,0.025 -0.343,0.025 l 0,0 c -0.021,0 -0.042,0 -0.063,-0.001"
         id="path900"
         inkscape:connector-curvature="0" /></clipPath><radialGradient
       fx="0"
       fy="0"
       cx="0"
       cy="0"
       r="1"
       gradientUnits="userSpaceOnUse"
       gradientTransform="matrix(-28.106254,1010.6155,1010.6155,28.106254,5275.9853,-5022.8453)"
       spreadMethod="pad"
       id="radialGradient906"><stop
         style="stop-opacity:1;stop-color:#ffffff"
         offset="0"
         id="stop908" /><stop
         style="stop-opacity:1;stop-color:#3a9b55"
         offset="1"
         id="stop910" /></radialGradient><clipPath
       clipPathUnits="userSpaceOnUse"
       id="clipPath918"><path
         d="m 418.227,153.327 c 0,0 -7.895,-13.3 -17.45,-13.565 l 0,0 c -10.058,-0.28 -20.382,-0.567 -20.382,-0.567 l 0,0 c -1.269,-0.035 -2.339,1.134 -2.381,2.596 l 0,0 -0.306,10.996 c -0.041,1.463 -0.784,1.791 -1.651,0.732 l 0,0 -20.645,-25.184 c -0.866,-1.058 -0.82,-2.75 0.106,-3.761 l 0,0 22.01,-23.996 c 0.927,-1.009 1.648,-0.638 1.61,0.824 l 0,0 -0.285,10.187 c -0.038,1.46 0.965,2.687 2.235,2.724 l 0,0 c 0,0 10.236,0.283 20.253,0.561 l 0,0 c 9.603,0.267 18.593,15.14 18.593,15.14 l 0,0 c 1.28,1.336 2.163,5.175 2.083,8.104 l 0,0 -0.394,14.184 c -0.027,0.971 -0.757,3.386 -1.748,3.386 l 0,0 c -0.501,0 -1.07,-0.62 -1.648,-2.361"
         id="path920"
         inkscape:connector-curvature="0" /></clipPath><radialGradient
       fx="0"
       fy="0"
       cx="0"
       cy="0"
       r="1"
       gradientUnits="userSpaceOnUse"
       gradientTransform="matrix(-56.881958,-1.581955,1.8209534,-65.577011,418.40234,133.52734)"
       spreadMethod="pad"
       id="radialGradient926"><stop
         style="stop-opacity:1;stop-color:#54d66a"
         offset="0"
         id="stop928" /><stop
         style="stop-opacity:1;stop-color:#007e1f"
         offset="1"
         id="stop930" /></radialGradient><clipPath
       clipPathUnits="userSpaceOnUse"
       id="clipPath938"><path
         d="M 0,477 580,477 580,0 0,0 0,477 z"
         id="path940"
         inkscape:connector-curvature="0" /></clipPath><clipPath
       clipPathUnits="userSpaceOnUse"
       id="clipPath954"><path
         d="m 398.293,206.444 c -0.308,-0.008 -0.554,-0.083 -0.709,-0.146 l 0,0 c -0.56,-0.226 -1.494,-0.896 -1.439,-2.823 l 0,0 0.282,-10.186 c 0.019,-0.642 -0.376,-1.132 -0.736,-1.144 l 0,0 -20.255,-0.562 c -10.3,-0.287 -19.444,-15.183 -19.86,-15.873 l 0,0 c -1.549,-1.881 -2.395,-5.937 -2.314,-8.951 l 0,0 0.395,-14.183 c 0.02,-0.731 0.618,-4.513 2.972,-4.861 l 0,0 c 0.141,-0.02 0.274,-0.028 0.405,-0.023 l 0,0 c 1.794,0.049 2.626,2.268 2.956,3.242 l 0,0 c 0.752,1.216 7.928,12.46 16.093,12.687 l 0,0 20.381,0.567 c 0.364,0.009 0.784,-0.459 0.801,-1.102 l 0,0 0.306,-10.995 c 0.055,-1.928 1.024,-2.544 1.597,-2.74 l 0,0 c 0.158,-0.054 0.409,-0.115 0.715,-0.107 l 0,0 c 0.56,0.017 1.314,0.261 2.069,1.183 l 0,0 20.646,25.183 c 1.359,1.656 1.287,4.193 -0.16,5.775 l 0,0 -22.014,23.996 c -0.779,0.847 -1.518,1.064 -2.073,1.064 l 0,0 c -0.019,0 -0.039,-0.001 -0.058,-0.001"
         id="path956"
         inkscape:connector-curvature="0" /></clipPath><radialGradient
       fx="0"
       fy="0"
       cx="0"
       cy="0"
       r="1"
       gradientUnits="userSpaceOnUse"
       gradientTransform="matrix(28.105349,-1010.5795,-1010.5795,-28.105349,6555.7436,-4153.5769)"
       spreadMethod="pad"
       id="radialGradient962"><stop
         style="stop-opacity:1;stop-color:#ffffff"
         offset="0"
         id="stop964" /><stop
         style="stop-opacity:1;stop-color:#3a9b55"
         offset="1"
         id="stop966" /></radialGradient><clipPath
       clipPathUnits="userSpaceOnUse"
       id="clipPath974"><path
         d="m 397.684,203.515 0.282,-10.186 c 0.04,-1.46 -0.963,-2.686 -2.232,-2.723 l 0,0 c 0,0 -10.237,-0.283 -20.256,-0.562 l 0,0 c -9.599,-0.266 -18.591,-15.14 -18.591,-15.14 l 0,0 c -1.282,-1.335 -2.166,-5.176 -2.084,-8.103 l 0,0 0.395,-14.184 c 0.041,-1.463 1.678,-6.205 3.394,-1.026 l 0,0 c 0,0 7.897,13.302 17.451,13.566 l 0,0 c 10.06,0.28 20.382,0.567 20.382,0.567 l 0,0 c 1.27,0.033 2.341,-1.134 2.381,-2.596 l 0,0 0.306,-10.996 c 0.042,-1.463 0.784,-1.792 1.653,-0.734 l 0,0 20.643,25.184 c 0.868,1.058 0.821,2.751 -0.106,3.761 l 0,0 -22.01,23.997 c -0.353,0.384 -0.676,0.568 -0.939,0.568 l 0,0 c -0.427,0.001 -0.694,-0.487 -0.669,-1.393"
         id="path976"
         inkscape:connector-curvature="0" /></clipPath><radialGradient
       fx="0"
       fy="0"
       cx="0"
       cy="0"
       r="1"
       gradientUnits="userSpaceOnUse"
       gradientTransform="matrix(56.882278,1.581955,-1.8209686,65.577362,358.42969,171.37598)"
       spreadMethod="pad"
       id="radialGradient982"><stop
         style="stop-opacity:1;stop-color:#54d66a"
         offset="0"
         id="stop984" /><stop
         style="stop-opacity:1;stop-color:#007e1f"
         offset="1"
         id="stop986" /></radialGradient><clipPath
       clipPathUnits="userSpaceOnUse"
       id="clipPath994"><path
         d="M 0,477 580,477 580,0 0,0 0,477 z"
         id="path996"
         inkscape:connector-curvature="0" /></clipPath><clipPath
       clipPathUnits="userSpaceOnUse"
       id="clipPath1010"><path
         d="m 515.711,181.014 -14.182,-0.395 c -0.731,-0.02 -4.515,-0.617 -4.862,-2.971 l 0,0 c -0.018,-0.14 -0.027,-0.275 -0.024,-0.406 l 0,0 c 0.052,-1.792 2.269,-2.627 3.242,-2.954 l 0,0 c 1.217,-0.753 12.462,-7.928 12.688,-16.092 l 0,0 0.566,-20.383 c 0.011,-0.364 -0.459,-0.782 -1.1,-0.802 l 0,0 -10.996,-0.305 c -1.928,-0.054 -2.544,-1.022 -2.74,-1.596 l 0,0 c -0.053,-0.159 -0.113,-0.409 -0.107,-0.716 l 0,0 c 0.018,-0.56 0.261,-1.314 1.183,-2.069 l 0,0 25.181,-20.645 c 1.658,-1.36 4.195,-1.288 5.777,0.161 l 0,0 23.998,22.012 c 0.878,0.806 1.078,1.572 1.061,2.132 l 0,0 c -0.009,0.307 -0.082,0.552 -0.145,0.709 l 0,0 c -0.225,0.56 -0.898,1.494 -2.825,1.439 l 0,0 -10.183,-0.282 c -0.644,-0.018 -1.132,0.376 -1.146,0.737 l 0,0 -0.561,20.254 c -0.288,10.299 -15.183,19.443 -15.874,19.86 l 0,0 c -1.794,1.48 -5.573,2.318 -8.536,2.318 l 0,0 c -0.14,0 -0.279,-0.002 -0.415,-0.006"
         id="path1012"
         inkscape:connector-curvature="0" /></clipPath><radialGradient
       fx="0"
       fy="0"
       cx="0"
       cy="0"
       r="1"
       gradientUnits="userSpaceOnUse"
       gradientTransform="matrix(-68.241516,-1.8978729,-1.8978729,68.241516,530.75781,102.65527)"
       spreadMethod="pad"
       id="radialGradient1018"><stop
         style="stop-opacity:1;stop-color:#ffffff"
         offset="0"
         id="stop1020" /><stop
         style="stop-opacity:1;stop-color:#3a9b55"
         offset="1"
         id="stop1022" /></radialGradient><clipPath
       clipPathUnits="userSpaceOnUse"
       id="clipPath1030"><path
         d="m 515.753,179.474 -14.185,-0.394 c -1.46,-0.041 -6.203,-1.676 -1.024,-3.395 l 0,0 c 0,0 13.299,-7.895 13.567,-17.451 l 0,0 c 0.278,-10.059 0.565,-20.383 0.565,-20.383 l 0,0 c 0.035,-1.268 -1.134,-2.339 -2.596,-2.38 l 0,0 -10.996,-0.306 c -1.463,-0.041 -1.792,-0.784 -0.734,-1.651 l 0,0 25.184,-20.645 c 1.06,-0.867 2.752,-0.82 3.76,0.105 l 0,0 23.999,22.011 c 1.008,0.927 0.636,1.648 -0.826,1.611 l 0,0 -10.184,-0.284 c -1.46,-0.04 -2.688,0.963 -2.726,2.232 l 0,0 c 0,0 -0.281,10.237 -0.561,20.254 l 0,0 c -0.266,9.6 -15.138,18.593 -15.138,18.593 l 0,0 c -1.281,1.225 -4.859,2.088 -7.731,2.088 l 0,0 c -0.126,0 -0.251,-0.001 -0.374,-0.005"
         id="path1032"
         inkscape:connector-curvature="0" /></clipPath><radialGradient
       fx="0"
       fy="0"
       cx="0"
       cy="0"
       r="1"
       gradientUnits="userSpaceOnUse"
       gradientTransform="matrix(1.581955,-56.882355,65.577469,1.8209686,520.33301,175.85352)"
       spreadMethod="pad"
       id="radialGradient1038"><stop
         style="stop-opacity:1;stop-color:#54d66a"
         offset="0"
         id="stop1040" /><stop
         style="stop-opacity:1;stop-color:#007e1f"
         offset="1"
         id="stop1042" /></radialGradient><clipPath
       clipPathUnits="userSpaceOnUse"
       id="clipPath1050"><path
         d="M 0,477 580,477 580,0 0,0 0,477 z"
         id="path1052"
         inkscape:connector-curvature="0" /></clipPath><clipPath
       clipPathUnits="userSpaceOnUse"
       id="clipPath1066"><path
         d="m 472.486,179.895 -23.997,-22.014 c -0.878,-0.807 -1.08,-1.573 -1.063,-2.132 l 0,0 c 0.007,-0.307 0.083,-0.554 0.147,-0.708 l 0,0 c 0.226,-0.561 0.896,-1.494 2.824,-1.44 l 0,0 10.184,0.283 c 0.643,0.019 1.133,-0.376 1.143,-0.736 l 0,0 0.563,-20.256 c 0.286,-10.298 15.183,-19.442 15.873,-19.861 l 0,0 c 1.881,-1.549 5.936,-2.392 8.951,-2.312 l 0,0 14.182,0.395 c 0.732,0.021 4.512,0.618 4.862,2.972 l 0,0 c 0.018,0.138 0.027,0.273 0.024,0.404 l 0,0 c -0.05,1.795 -2.269,2.627 -3.242,2.956 l 0,0 c -1.217,0.752 -12.46,7.929 -12.688,16.093 l 0,0 -0.566,20.383 c -0.01,0.362 0.458,0.782 1.101,0.801 l 0,0 10.994,0.305 c 1.929,0.054 2.546,1.024 2.741,1.596 l 0,0 c 0.053,0.158 0.115,0.409 0.107,0.717 l 0,0 c -0.017,0.559 -0.26,1.311 -1.181,2.067 l 0,0 -25.183,20.647 c -0.795,0.651 -1.791,0.974 -2.788,0.974 l 0,0 c -1.082,0 -2.164,-0.381 -2.988,-1.134"
         id="path1068"
         inkscape:connector-curvature="0" /></clipPath><radialGradient
       fx="0"
       fy="0"
       cx="0"
       cy="0"
       r="1"
       gradientUnits="userSpaceOnUse"
       gradientTransform="matrix(68.241669,1.8978729,1.8978729,-68.241653,472.06445,189.08105)"
       spreadMethod="pad"
       id="radialGradient1074"><stop
         style="stop-opacity:1;stop-color:#ffffff"
         offset="0"
         id="stop1076" /><stop
         style="stop-opacity:1;stop-color:#3a9b55"
         offset="1"
         id="stop1078" /></radialGradient><clipPath
       clipPathUnits="userSpaceOnUse"
       id="clipPath1086"><path
         d="m 473.527,178.759 -23.997,-22.01 c -1.009,-0.928 -0.639,-1.649 0.825,-1.609 l 0,0 10.186,0.283 c 1.46,0.04 2.687,-0.964 2.723,-2.231 l 0,0 c 0,0 0.283,-10.238 0.562,-20.257 l 0,0 c 0.268,-9.599 15.14,-18.591 15.14,-18.591 l 0,0 c 1.336,-1.281 5.176,-2.165 8.104,-2.084 l 0,0 14.185,0.394 c 1.461,0.041 6.204,1.678 1.024,3.395 l 0,0 c 0,0 -13.298,7.896 -13.565,17.45 l 0,0 c -0.279,10.06 -0.566,20.383 -0.566,20.383 l 0,0 c -0.036,1.268 1.133,2.341 2.595,2.381 l 0,0 10.996,0.305 c 1.463,0.041 1.792,0.785 0.733,1.655 l 0,0 -25.184,20.642 c -0.507,0.416 -1.159,0.622 -1.811,0.622 l 0,0 c -0.711,0 -1.423,-0.245 -1.95,-0.728"
         id="path1088"
         inkscape:connector-curvature="0" /></clipPath><radialGradient
       fx="0"
       fy="0"
       cx="0"
       cy="0"
       r="1"
       gradientUnits="userSpaceOnUse"
       gradientTransform="matrix(-1.5819397,56.881607,-65.576584,-1.8209381,482.48926,115.87695)"
       spreadMethod="pad"
       id="radialGradient1094"><stop
         style="stop-opacity:1;stop-color:#54d66a"
         offset="0"
         id="stop1096" /><stop
         style="stop-opacity:1;stop-color:#007e1f"
         offset="1"
         id="stop1098" /></radialGradient><clipPath
       clipPathUnits="userSpaceOnUse"
       id="clipPath1106"><path
         d="M 0,477 580,477 580,0 0,0 0,477 z"
         id="path1108"
         inkscape:connector-curvature="0" /></clipPath><clipPath
       clipPathUnits="userSpaceOnUse"
       id="clipPath1122"><path
         d="m 484.223,82.22 c -0.691,-0.418 -15.587,-9.562 -15.872,-19.861 l 0,0 -0.562,-20.252 c -0.011,-0.363 -0.503,-0.757 -1.146,-0.738 l 0,0 -10.184,0.282 c -1.926,0.053 -2.597,-0.878 -2.824,-1.44 l 0,0 c -0.063,-0.156 -0.137,-0.401 -0.146,-0.709 l 0,0 c -0.017,-0.559 0.184,-1.325 1.062,-2.132 l 0,0 23.999,-22.011 c 1.581,-1.449 4.118,-1.52 5.775,-0.162 l 0,0 25.183,20.645 c 0.922,0.756 1.164,1.51 1.183,2.069 l 0,0 c 0.006,0.308 -0.054,0.558 -0.107,0.716 l 0,0 c -0.197,0.574 -0.812,1.543 -2.741,1.597 l 0,0 -10.995,0.307 c -0.643,0.018 -1.111,0.437 -1.101,0.798 l 0,0 0.565,20.383 c 0.228,8.166 11.473,15.341 12.688,16.095 l 0,0 c 0.972,0.326 3.192,1.16 3.242,2.954 l 0,0 c 0.003,0.129 -0.004,0.264 -0.024,0.405 l 0,0 c -0.348,2.353 -4.131,2.952 -4.861,2.971 l 0,0 -14.182,0.396 c -0.133,0.004 -0.267,0.006 -0.404,0.006 l 0,0 c -2.965,0 -6.75,-0.838 -8.548,-2.319"
         id="path1124"
         inkscape:connector-curvature="0" /></clipPath><radialGradient
       fx="0"
       fy="0"
       cx="0"
       cy="0"
       r="1"
       gradientUnits="userSpaceOnUse"
       gradientTransform="matrix(68.242035,-1.8978882,1.8978882,68.242035,478.12695,6.1787109)"
       spreadMethod="pad"
       id="radialGradient1130"><stop
         style="stop-opacity:1;stop-color:#ffffff"
         offset="0"
         id="stop1132" /><stop
         style="stop-opacity:1;stop-color:#3a9b55"
         offset="1"
         id="stop1134" /></radialGradient><clipPath
       clipPathUnits="userSpaceOnUse"
       id="clipPath1142"><path
         d="m 485.028,80.908 c 0,0 -14.872,-8.991 -15.139,-18.592 l 0,0 c -0.278,-10.017 -0.561,-20.254 -0.561,-20.254 l 0,0 c -0.037,-1.268 -1.263,-2.273 -2.725,-2.233 l 0,0 -10.184,0.283 c -1.462,0.041 -1.833,-0.682 -0.826,-1.61 l 0,0 23.998,-22.009 c 1.009,-0.926 2.702,-0.973 3.76,-0.107 l 0,0 25.184,20.645 c 1.059,0.868 0.731,1.61 -0.733,1.652 l 0,0 -10.996,0.306 c -1.462,0.041 -2.631,1.111 -2.595,2.38 l 0,0 c 0,0 0.286,10.324 0.567,20.383 l 0,0 c 0.264,9.555 13.564,17.451 13.564,17.451 l 0,0 c 5.179,1.718 0.437,3.354 -1.024,3.395 l 0,0 -14.185,0.395 c -0.124,0.003 -0.249,0.005 -0.377,0.005 l 0,0 c -2.871,0 -6.446,-0.865 -7.728,-2.09"
         id="path1144"
         inkscape:connector-curvature="0" /></clipPath><radialGradient
       fx="0"
       fy="0"
       cx="0"
       cy="0"
       r="1"
       gradientUnits="userSpaceOnUse"
       gradientTransform="matrix(-1.5819702,-56.88266,-65.577805,1.8209686,488.55566,79.366211)"
       spreadMethod="pad"
       id="radialGradient1150"><stop
         style="stop-opacity:1;stop-color:#54d66a"
         offset="0"
         id="stop1152" /><stop
         style="stop-opacity:1;stop-color:#007e1f"
         offset="1"
         id="stop1154" /></radialGradient><clipPath
       clipPathUnits="userSpaceOnUse"
       id="clipPath1162"><path
         d="M 0,477 580,477 580,0 0,0 0,477 z"
         id="path1164"
         inkscape:connector-curvature="0" /></clipPath><clipPath
       clipPathUnits="userSpaceOnUse"
       id="clipPath1178"><path
         d="M 530.626,83.572 505.444,62.926 c -0.923,-0.755 -1.165,-1.509 -1.182,-2.069 l 0,0 c -0.009,-0.307 0.052,-0.557 0.105,-0.714 l 0,0 c 0.196,-0.575 0.813,-1.543 2.742,-1.598 l 0,0 10.995,-0.305 c 0.642,-0.017 1.11,-0.437 1.1,-0.8 l 0,0 -0.566,-20.383 C 518.41,28.894 507.166,21.716 505.951,20.964 l 0,0 c -0.973,-0.329 -3.192,-1.162 -3.242,-2.956 l 0,0 c -0.004,-0.13 0.005,-0.265 0.024,-0.403 l 0,0 c 0.348,-2.355 4.131,-2.953 4.861,-2.973 l 0,0 14.184,-0.396 c 3.012,-0.082 7.067,0.765 8.948,2.313 l 0,0 c 0.691,0.418 15.587,9.564 15.873,19.861 l 0,0 0.562,20.255 c 0.011,0.361 0.503,0.755 1.145,0.737 l 0,0 10.185,-0.283 c 1.926,-0.055 2.597,0.879 2.825,1.44 l 0,0 c 0.062,0.155 0.137,0.4 0.145,0.709 l 0,0 c 0.016,0.559 -0.185,1.324 -1.063,2.13 l 0,0 -23.995,22.015 c -0.824,0.753 -1.907,1.133 -2.989,1.133 l 0,0 c -0.997,0 -1.994,-0.322 -2.788,-0.974"
         id="path1180"
         inkscape:connector-curvature="0" /></clipPath><radialGradient
       fx="0"
       fy="0"
       cx="0"
       cy="0"
       r="1"
       gradientUnits="userSpaceOnUse"
       gradientTransform="matrix(-68.242752,1.8979034,-1.8979034,-68.242752,536.82031,92.600586)"
       spreadMethod="pad"
       id="radialGradient1186"><stop
         style="stop-opacity:1;stop-color:#ffffff"
         offset="0"
         id="stop1188" /><stop
         style="stop-opacity:1;stop-color:#3a9b55"
         offset="1"
         id="stop1190" /></radialGradient><clipPath
       clipPathUnits="userSpaceOnUse"
       id="clipPath1198"><path
         d="M 531.599,82.382 506.415,61.74 c -1.059,-0.868 -0.729,-1.613 0.732,-1.654 l 0,0 10.997,-0.304 c 1.464,-0.042 2.631,-1.114 2.595,-2.382 l 0,0 c 0,0 -0.286,-10.323 -0.565,-20.383 l 0,0 C 519.908,27.463 506.607,19.568 506.607,19.568 l 0,0 c -5.179,-1.718 -0.435,-3.354 1.025,-3.395 l 0,0 14.185,-0.395 c 2.927,-0.082 6.767,0.803 8.104,2.084 l 0,0 c 0,0 14.872,8.991 15.14,18.591 l 0,0 c 0.278,10.018 0.561,20.255 0.561,20.255 l 0,0 c 0.036,1.268 1.263,2.273 2.724,2.233 l 0,0 10.186,-0.283 c 1.462,-0.04 1.833,0.681 0.823,1.61 l 0,0 -23.995,22.009 c -0.527,0.483 -1.239,0.727 -1.95,0.727 l 0,0 c -0.653,0 -1.305,-0.206 -1.811,-0.622"
         id="path1200"
         inkscape:connector-curvature="0" /></clipPath><radialGradient
       fx="0"
       fy="0"
       cx="0"
       cy="0"
       r="1"
       gradientUnits="userSpaceOnUse"
       gradientTransform="matrix(1.5819855,56.883148,65.578369,-1.8209839,526.40039,19.397461)"
       spreadMethod="pad"
       id="radialGradient1206"><stop
         style="stop-opacity:1;stop-color:#54d66a"
         offset="0"
         id="stop1208" /><stop
         style="stop-opacity:1;stop-color:#007e1f"
         offset="1"
         id="stop1210" /></radialGradient><clipPath
       clipPathUnits="userSpaceOnUse"
       id="clipPath1218"><path
         d="M 0,477 580,477 580,0 0,0 0,477 z"
         id="path1220"
         inkscape:connector-curvature="0" /></clipPath><clipPath
       clipPathUnits="userSpaceOnUse"
       id="clipPath1234"><path
         d="m 162.82,279.026 c -0.123,-0.071 -0.232,-0.148 -0.332,-0.232 l 0,0 c -1.372,-1.157 -0.642,-3.412 -0.292,-4.377 l 0,0 c 0.169,-1.419 1.561,-14.686 -4.685,-19.951 l 0,0 -15.591,-13.14 c -0.277,-0.234 -0.897,-0.128 -1.311,0.362 l 0,0 -7.089,8.411 c -1.244,1.475 -2.386,1.354 -2.956,1.15 l 0,0 c -0.158,-0.056 -0.392,-0.165 -0.626,-0.363 l 0,0 c -0.428,-0.362 -0.866,-1.021 -0.883,-2.213 l 0,0 -0.461,-32.559 c -0.031,-2.143 1.605,-4.083 3.724,-4.419 l 0,0 32.167,-5.059 c 1.178,-0.184 1.902,0.137 2.33,0.495 l 0,0 c 0.235,0.201 0.38,0.411 0.463,0.557 l 0,0 c 0.298,0.528 0.61,1.632 -0.633,3.106 l 0,0 -6.566,7.791 c -0.414,0.492 -0.412,1.122 -0.136,1.354 l 0,0 15.494,13.06 c 7.878,6.64 5.751,23.987 5.647,24.787 l 0,0 c 0.041,2.437 -1.824,6.135 -3.767,8.443 l 0,0 -9.144,10.847 c -0.384,0.455 -2.336,2.262 -4.159,2.262 l 0,0 c -0.411,0 -0.816,-0.092 -1.194,-0.312"
         id="path1236"
         inkscape:connector-curvature="0" /></clipPath><radialGradient
       fx="0"
       fy="0"
       cx="0"
       cy="0"
       r="1"
       gradientUnits="userSpaceOnUse"
       gradientTransform="matrix(-44.000351,52.199631,52.199631,44.000351,125.24707,205.3252)"
       spreadMethod="pad"
       id="radialGradient1242"><stop
         style="stop-opacity:1;stop-color:#ffffff"
         offset="0"
         id="stop1244" /><stop
         style="stop-opacity:1;stop-color:#3a9b55"
         offset="1"
         id="stop1246" /></radialGradient><clipPath
       clipPathUnits="userSpaceOnUse"
       id="clipPath1254"><path
         d="m 163.701,274.773 c 0,0 2.11,-15.323 -5.199,-21.483 l 0,0 c -7.693,-6.485 -15.591,-13.142 -15.591,-13.142 l 0,0 c -0.971,-0.817 -2.537,-0.571 -3.479,0.547 l 0,0 -7.089,8.411 c -0.943,1.12 -1.73,0.913 -1.75,-0.456 l 0,0 -0.462,-32.558 c -0.02,-1.367 1.071,-2.662 2.425,-2.877 l 0,0 32.167,-5.057 c 1.353,-0.213 1.687,0.528 0.745,1.646 l 0,0 -6.566,7.79 c -0.942,1.118 -0.921,2.703 0.05,3.523 l 0,0 c 0,0 7.831,6.597 15.494,13.056 l 0,0 c 7.343,6.189 5.112,23.425 5.112,23.425 l 0,0 c 0.169,1.842 -1.53,5.397 -3.42,7.637 l 0,0 -9.143,10.85 c -0.519,0.616 -2.039,1.71 -2.984,1.71 l 0,0 c -0.768,0 -1.155,-0.724 -0.31,-3.022"
         id="path1256"
         inkscape:connector-curvature="0" /></clipPath><radialGradient
       fx="0"
       fy="0"
       cx="0"
       cy="0"
       r="1"
       gradientUnits="userSpaceOnUse"
       gradientTransform="matrix(-43.508667,-36.674515,42.279556,-50.160736,175.80566,258.97559)"
       spreadMethod="pad"
       id="radialGradient1262"><stop
         style="stop-opacity:1;stop-color:#54d66a"
         offset="0"
         id="stop1264" /><stop
         style="stop-opacity:1;stop-color:#007e1f"
         offset="1"
         id="stop1266" /></radialGradient><clipPath
       clipPathUnits="userSpaceOnUse"
       id="clipPath1274"><path
         d="M 0,477 580,477 580,0 0,0 0,477 z"
         id="path1276"
         inkscape:connector-curvature="0" /></clipPath><clipPath
       clipPathUnits="userSpaceOnUse"
       id="clipPath1290"><path
         d="m 335.013,283.784 -32.168,-5.059 c -2.118,-0.334 -3.754,-2.275 -3.724,-4.418 l 0,0 0.461,-32.559 c 0.017,-1.191 0.456,-1.852 0.884,-2.213 l 0,0 c 0.235,-0.197 0.468,-0.308 0.625,-0.362 l 0,0 c 0.571,-0.205 1.714,-0.326 2.957,1.149 l 0,0 7.088,8.41 c 0.413,0.492 1.035,0.596 1.312,0.363 l 0,0 15.592,-13.14 c 6.244,-5.265 4.854,-18.532 4.685,-19.951 l 0,0 c -0.35,-0.965 -1.08,-3.22 0.291,-4.378 l 0,0 c 0.1,-0.084 0.21,-0.161 0.331,-0.231 l 0,0 c 2.059,-1.195 4.883,1.392 5.355,1.949 l 0,0 9.143,10.85 c 1.943,2.305 3.808,6.003 3.768,8.44 l 0,0 c 0.103,0.8 2.23,18.148 -5.648,24.788 l 0,0 -15.491,13.06 c -0.278,0.232 -0.279,0.862 0.134,1.353 l 0,0 6.566,7.791 c 1.242,1.476 0.93,2.579 0.633,3.107 l 0,0 c -0.082,0.146 -0.228,0.357 -0.465,0.555 l 0,0 c -0.341,0.288 -0.871,0.55 -1.671,0.55 l 0,0 c -0.202,0 -0.42,-0.016 -0.658,-0.054"
         id="path1292"
         inkscape:connector-curvature="0" /></clipPath><radialGradient
       fx="0"
       fy="0"
       cx="0"
       cy="0"
       r="1"
       gradientUnits="userSpaceOnUse"
       gradientTransform="matrix(-44.000351,-52.199646,52.199646,-44.000351,295.78027,285.09326)"
       spreadMethod="pad"
       id="radialGradient1298"><stop
         style="stop-opacity:1;stop-color:#ffffff"
         offset="0"
         id="stop1300" /><stop
         style="stop-opacity:1;stop-color:#3a9b55"
         offset="1"
         id="stop1302" /></radialGradient><clipPath
       clipPathUnits="userSpaceOnUse"
       id="clipPath1310"><path
         d="m 335.251,282.263 -32.167,-5.059 c -1.353,-0.214 -2.444,-1.508 -2.424,-2.876 l 0,0 0.46,-32.56 c 0.02,-1.369 0.807,-1.575 1.75,-0.456 l 0,0 7.089,8.412 c 0.943,1.118 2.508,1.364 3.479,0.546 l 0,0 c 0,0 7.898,-6.657 15.592,-13.141 l 0,0 c 7.308,-6.16 5.198,-21.484 5.198,-21.484 l 0,0 c -1.883,-5.122 2.352,-2.43 3.294,-1.312 l 0,0 9.145,10.849 c 1.889,2.242 3.59,5.797 3.419,7.64 l 0,0 c 0,0 2.232,17.235 -5.112,23.424 l 0,0 c -7.661,6.46 -15.493,13.058 -15.493,13.058 l 0,0 c -0.969,0.818 -0.992,2.403 -0.05,3.521 l 0,0 6.566,7.791 c 0.834,0.99 0.668,1.684 -0.319,1.683 l 0,0 c -0.129,0 -0.271,-0.011 -0.427,-0.036"
         id="path1312"
         inkscape:connector-curvature="0" /></clipPath><radialGradient
       fx="0"
       fy="0"
       cx="0"
       cy="0"
       r="1"
       gradientUnits="userSpaceOnUse"
       gradientTransform="matrix(-43.508301,36.674225,42.27919,50.160309,346.33203,231.44434)"
       spreadMethod="pad"
       id="radialGradient1318"><stop
         style="stop-opacity:1;stop-color:#54d66a"
         offset="0"
         id="stop1320" /><stop
         style="stop-opacity:1;stop-color:#007e1f"
         offset="1"
         id="stop1322" /></radialGradient><clipPath
       clipPathUnits="userSpaceOnUse"
       id="clipPath1330"><path
         d="M 0,477 580,477 580,0 0,0 0,477 z"
         id="path1332"
         inkscape:connector-curvature="0" /></clipPath><clipPath
       clipPathUnits="userSpaceOnUse"
       id="clipPath1346"><path
         d="m 221.147,283.288 c -0.235,-0.198 -0.38,-0.409 -0.463,-0.555 l 0,0 c -0.297,-0.528 -0.61,-1.631 0.633,-3.107 l 0,0 6.566,-7.791 c 0.414,-0.491 0.412,-1.121 0.135,-1.353 l 0,0 -15.494,-13.06 c -7.878,-6.64 -5.75,-23.988 -5.647,-24.788 l 0,0 c -0.04,-2.437 1.825,-6.135 3.769,-8.44 l 0,0 9.143,-10.85 c 0.472,-0.557 3.297,-3.144 5.354,-1.949 l 0,0 c 0.123,0.07 0.232,0.147 0.332,0.231 l 0,0 c 1.372,1.158 0.641,3.413 0.292,4.378 l 0,0 c -0.169,1.419 -1.561,14.686 4.685,19.951 l 0,0 15.591,13.14 c 0.277,0.233 0.897,0.129 1.311,-0.363 l 0,0 7.089,-8.41 c 1.243,-1.475 2.386,-1.354 2.956,-1.149 l 0,0 c 0.158,0.054 0.391,0.165 0.626,0.362 l 0,0 c 0.428,0.361 0.866,1.022 0.883,2.213 l 0,0 0.461,32.559 c 0.031,2.143 -1.605,4.084 -3.724,4.418 l 0,0 -32.167,5.059 c -0.237,0.038 -0.456,0.054 -0.658,0.054 l 0,0 c -0.8,0 -1.331,-0.262 -1.673,-0.55"
         id="path1348"
         inkscape:connector-curvature="0" /></clipPath><radialGradient
       fx="0"
       fy="0"
       cx="0"
       cy="0"
       r="1"
       gradientUnits="userSpaceOnUse"
       gradientTransform="matrix(43.999924,-52.199127,-52.199127,-43.999924,262.70508,285.11035)"
       spreadMethod="pad"
       id="radialGradient1354"><stop
         style="stop-opacity:1;stop-color:#ffffff"
         offset="0"
         id="stop1356" /><stop
         style="stop-opacity:1;stop-color:#3a9b55"
         offset="1"
         id="stop1358" /></radialGradient><clipPath
       clipPathUnits="userSpaceOnUse"
       id="clipPath1366"><path
         d="m 222.493,280.616 6.566,-7.791 c 0.942,-1.118 0.919,-2.703 -0.05,-3.521 l 0,0 c 0,0 -7.831,-6.598 -15.494,-13.058 l 0,0 c -7.343,-6.189 -5.112,-23.424 -5.112,-23.424 l 0,0 c -0.17,-1.843 1.53,-5.398 3.42,-7.64 l 0,0 9.143,-10.849 c 0.942,-1.118 5.177,-3.81 3.294,1.312 l 0,0 c 0,0 -2.11,15.324 5.199,21.484 l 0,0 c 7.695,6.484 15.592,13.141 15.592,13.141 l 0,0 c 0.97,0.818 2.536,0.572 3.479,-0.546 l 0,0 7.089,-8.412 c 0.943,-1.119 1.73,-0.913 1.75,0.456 l 0,0 0.462,32.56 c 0.02,1.368 -1.072,2.662 -2.425,2.876 l 0,0 -32.167,5.059 c -0.156,0.025 -0.299,0.036 -0.427,0.036 l 0,0 c -0.987,0.001 -1.152,-0.693 -0.319,-1.683"
         id="path1368"
         inkscape:connector-curvature="0" /></clipPath><radialGradient
       fx="0"
       fy="0"
       cx="0"
       cy="0"
       r="1"
       gradientUnits="userSpaceOnUse"
       gradientTransform="matrix(43.50856,36.674423,-42.279434,50.160599,212.14844,231.45605)"
       spreadMethod="pad"
       id="radialGradient1374"><stop
         style="stop-opacity:1;stop-color:#54d66a"
         offset="0"
         id="stop1376" /><stop
         style="stop-opacity:1;stop-color:#007e1f"
         offset="1"
         id="stop1378" /></radialGradient><clipPath
       clipPathUnits="userSpaceOnUse"
       id="clipPath1386"><path
         d="M 0,477 580,477 580,0 0,0 0,477 z"
         id="path1388"
         inkscape:connector-curvature="0" /></clipPath><clipPath
       clipPathUnits="userSpaceOnUse"
       id="clipPath1402"><path
         d="m 388.62,265.167 0,-28.634 c 0,-10.369 8.724,-18.804 19.446,-18.804 l 0,0 13.779,0 0,-10.707 c 0,-1.673 0.932,-2.212 1.33,-2.364 l 0,0 c 0.399,-0.155 1.45,-0.381 2.573,0.856 l 0,0 19.316,21.276 c 1.276,1.403 1.305,3.631 0.065,5.07 l 0,0 -19.397,22.501 c -1.1,1.275 -2.15,1.066 -2.553,0.918 l 0,0 c -0.4,-0.15 -1.335,-0.677 -1.335,-2.362 l 0,0 0,-11.059 -5.499,0 c -1.39,0 -3.596,2.207 -3.596,3.075 l 0,0 0,11.119 c 0,1.07 2.604,3.786 4.779,3.786 l 0,0 26.022,0 c 2.435,0 4.07,2.092 4.07,5.205 l 0,0 0,14.431 c 0,2.688 -1.826,4.494 -4.543,4.494 l 0,0 -35.011,0 0,10e-4 c -10.723,0 -19.446,-8.435 -19.446,-18.802"
         id="path1404"
         inkscape:connector-curvature="0" /></clipPath><radialGradient
       fx="0"
       fy="0"
       cx="0"
       cy="0"
       r="1"
       gradientUnits="userSpaceOnUse"
       gradientTransform="matrix(32.231003,0,0,32.231003,451.37305,245.68164)"
       spreadMethod="pad"
       id="radialGradient1410"><stop
         style="stop-opacity:1;stop-color:#ffffff"
         offset="0"
         id="stop1412" /><stop
         style="stop-opacity:1;stop-color:#3a9b55"
         offset="1"
         id="stop1414" /></radialGradient><clipPath
       clipPathUnits="userSpaceOnUse"
       id="clipPath1422"><path
         d="m 408.066,282.55 c -9.939,0 -18.026,-7.798 -18.026,-17.383 l 0,0 0,-28.634 c 0,-9.586 8.087,-17.385 18.026,-17.385 l 0,0 15.2,0 0,-12.126 c 0,-1.17 0.645,-1.421 1.432,-0.553 l 0,0 19.316,21.275 c 0.787,0.865 0.806,2.3 0.04,3.188 l 0,0 -19.397,22.504 c -0.765,0.886 -1.391,0.653 -1.391,-0.519 l 0,0 0,-12.478 -6.92,0 c -2.065,0 -5.015,2.751 -5.015,4.494 l 0,0 0,11.119 c 0,2.03 3.394,5.205 6.198,5.205 l 0,0 26.022,0 c 1.656,0 2.65,1.537 2.65,3.786 l 0,0 0,14.431 c 0.002,1.857 -1.176,3.076 -3.121,3.076 l 0,0 -35.014,0 z"
         id="path1424"
         inkscape:connector-curvature="0" /></clipPath><radialGradient
       fx="0"
       fy="0"
       cx="0"
       cy="0"
       r="1"
       gradientUnits="userSpaceOnUse"
       gradientTransform="matrix(54.492996,0,0,54.492996,386.33398,253.59277)"
       spreadMethod="pad"
       id="radialGradient1430"><stop
         style="stop-opacity:1;stop-color:#54d66a"
         offset="0"
         id="stop1432" /><stop
         style="stop-opacity:1;stop-color:#007e1f"
         offset="1"
         id="stop1434" /></radialGradient><clipPath
       clipPathUnits="userSpaceOnUse"
       id="clipPath1442"><path
         d="M 0,477 580,477 580,0 0,0 0,477 z"
         id="path1444"
         inkscape:connector-curvature="0" /></clipPath><clipPath
       clipPathUnits="userSpaceOnUse"
       id="clipPath1458"><path
         d="m 57.533,177.932 c -10.368,0 -18.804,-8.725 -18.804,-19.447 l 0,0 0,-13.78 -10.706,0 c -1.672,0 -2.211,-0.93 -2.365,-1.329 l 0,0 c -0.154,-0.397 -0.381,-1.45 0.857,-2.571 l 0,0 21.275,-19.319 c 1.405,-1.274 3.632,-1.303 5.07,-0.063 l 0,0 22.501,19.397 c 1.276,1.099 1.067,2.15 0.918,2.552 l 0,0 c -0.149,0.401 -0.677,1.334 -2.361,1.334 l 0,0 -11.06,0 0,5.499 c 0,1.393 2.208,3.597 3.077,3.597 l 0,0 11.118,0 c 1.07,0 3.786,-2.604 3.786,-4.778 l 0,0 0,-26.023 c 0,-2.434 2.092,-4.068 5.205,-4.068 l 0,0 14.431,0 c 2.688,0 4.496,1.825 4.496,4.543 l 0,0 0,35.009 c 0,10.723 -8.436,19.447 -18.804,19.447 l 0,0 -28.634,0 z"
         id="path1460"
         inkscape:connector-curvature="0" /></clipPath><radialGradient
       fx="0"
       fy="0"
       cx="0"
       cy="0"
       r="1"
       gradientUnits="userSpaceOnUse"
       gradientTransform="matrix(0,-32.231003,32.231003,0,66.682617,115.17969)"
       spreadMethod="pad"
       id="radialGradient1466"><stop
         style="stop-opacity:1;stop-color:#ffffff"
         offset="0"
         id="stop1468" /><stop
         style="stop-opacity:1;stop-color:#3a9b55"
         offset="1"
         id="stop1470" /></radialGradient><clipPath
       clipPathUnits="userSpaceOnUse"
       id="clipPath1478"><path
         d="m 57.533,176.512 c -9.586,0 -17.384,-8.087 -17.384,-18.026 l 0,0 0,-15.2 -12.126,0 c -1.171,0 -1.419,-0.643 -0.553,-1.431 l 0,0 21.275,-19.317 c 0.867,-0.787 2.301,-0.806 3.188,-0.04 l 0,0 22.502,19.399 c 0.888,0.763 0.655,1.389 -0.517,1.389 l 0,0 -12.477,0 0,6.919 c 0,2.067 2.751,5.018 4.495,5.018 l 0,0 11.118,0 c 2.03,0 5.206,-3.396 5.206,-6.199 l 0,0 0,-26.023 c 0,-1.655 1.538,-2.649 3.784,-2.649 l 0,0 14.432,0 c 1.855,-0.002 3.074,1.175 3.074,3.123 l 0,0 0,35.011 c 0,9.939 -7.797,18.026 -17.383,18.026 l 0,0 -28.634,0 z"
         id="path1480"
         inkscape:connector-curvature="0" /></clipPath><radialGradient
       fx="0"
       fy="0"
       cx="0"
       cy="0"
       r="1"
       gradientUnits="userSpaceOnUse"
       gradientTransform="matrix(0,-54.491394,54.491394,0,74.59375,180.21484)"
       spreadMethod="pad"
       id="radialGradient1486"><stop
         style="stop-opacity:1;stop-color:#54d66a"
         offset="0"
         id="stop1488" /><stop
         style="stop-opacity:1;stop-color:#007e1f"
         offset="1"
         id="stop1490" /></radialGradient><clipPath
       clipPathUnits="userSpaceOnUse"
       id="clipPath1498"><path
         d="M 0,477 580,477 580,0 0,0 0,477 z"
         id="path1500"
         inkscape:connector-curvature="0" /></clipPath><clipPath
       clipPathUnits="userSpaceOnUse"
       id="clipPath1514"><path
         d="m 200.679,170.02 c -3.113,0 -5.205,-1.635 -5.205,-4.07 l 0,0 0,-26.023 c 0,-2.174 -2.717,-4.779 -3.786,-4.779 l 0,0 -11.118,0 c -0.868,0 -3.076,2.206 -3.076,3.598 l 0,0 0,5.499 11.061,0 c 1.683,0 2.211,0.935 2.36,1.334 l 0,0 c 0.149,0.402 0.357,1.453 -0.917,2.552 l 0,0 -22.502,19.396 c -1.438,1.243 -3.665,1.212 -5.07,-0.063 l 0,0 -21.275,-19.316 c -1.237,-1.125 -1.011,-2.173 -0.857,-2.573 l 0,0 c 0.155,-0.4 0.693,-1.329 2.365,-1.329 l 0,0 10.706,0 0,-13.78 c 0,-10.722 8.435,-19.446 18.803,-19.446 l 0,0 28.635,0 c 10.368,0 18.803,8.723 18.803,19.446 l 0,0 -0.001,0 0,35.011 c 0,2.717 -1.807,4.543 -4.495,4.543 l 0,0 -14.431,0 z"
         id="path1516"
         inkscape:connector-curvature="0" /></clipPath><radialGradient
       fx="0"
       fy="0"
       cx="0"
       cy="0"
       r="1"
       gradientUnits="userSpaceOnUse"
       gradientTransform="matrix(0,32.231003,32.231003,0,181.31934,173.77344)"
       spreadMethod="pad"
       id="radialGradient1522"><stop
         style="stop-opacity:1;stop-color:#ffffff"
         offset="0"
         id="stop1524" /><stop
         style="stop-opacity:1;stop-color:#3a9b55"
         offset="1"
         id="stop1526" /></radialGradient><clipPath
       clipPathUnits="userSpaceOnUse"
       id="clipPath1534"><path
         d="m 215.112,168.602 -14.431,0 c -2.248,0 -3.785,-0.995 -3.785,-2.651 l 0,0 0,-26.022 c 0,-2.804 -3.176,-6.199 -5.206,-6.199 l 0,0 -11.118,0 c -1.744,0 -4.495,2.951 -4.495,5.017 l 0,0 0,6.919 12.478,0 c 1.172,0 1.404,0.626 0.517,1.39 l 0,0 -22.502,19.398 c -0.886,0.767 -2.321,0.747 -3.188,-0.04 l 0,0 -21.275,-19.316 c -0.865,-0.788 -0.618,-1.432 0.553,-1.432 l 0,0 12.126,0 0,-15.2 c 0,-9.939 7.798,-18.026 17.383,-18.026 l 0,0 28.635,0 c 9.585,0 17.383,8.087 17.383,18.026 l 0,0 0,35.013 c 0,1.943 -1.218,3.123 -3.071,3.123 l 0,0 c -0.001,0 -0.003,0 -0.004,0"
         id="path1536"
         inkscape:connector-curvature="0" /></clipPath><radialGradient
       fx="0"
       fy="0"
       cx="0"
       cy="0"
       r="1"
       gradientUnits="userSpaceOnUse"
       gradientTransform="matrix(0,54.49292,54.49292,0,189.23047,108.73535)"
       spreadMethod="pad"
       id="radialGradient1542"><stop
         style="stop-opacity:1;stop-color:#54d66a"
         offset="0"
         id="stop1544" /><stop
         style="stop-opacity:1;stop-color:#007e1f"
         offset="1"
         id="stop1546" /></radialGradient><clipPath
       clipPathUnits="userSpaceOnUse"
       id="clipPath1554"><path
         d="M 0,477 580,477 580,0 0,0 0,477 z"
         id="path1556"
         inkscape:connector-curvature="0" /></clipPath><clipPath
       clipPathUnits="userSpaceOnUse"
       id="clipPath1570"><path
         d="m 520.458,283.968 -35.01,0 c -2.718,0 -4.543,-1.806 -4.543,-4.494 l 0,0 0,-14.431 c 0,-3.113 1.635,-5.205 4.07,-5.205 l 0,0 26.022,0 c 2.175,0 4.779,-2.716 4.779,-3.786 l 0,0 0,-11.119 c 0,-0.868 -2.205,-3.075 -3.598,-3.075 l 0,0 -5.5,0 0,11.059 c 0,1.685 -0.933,2.212 -1.333,2.362 l 0,0 c -0.401,0.148 -1.452,0.357 -2.552,-0.918 l 0,0 -19.397,-22.501 c -1.24,-1.439 -1.211,-3.667 0.065,-5.07 l 0,0 19.315,-21.276 c 1.125,-1.237 2.175,-1.011 2.574,-0.856 l 0,0 c 0.399,0.152 1.327,0.691 1.327,2.364 l 0,0 0,10.707 13.781,0 c 10.722,0 19.447,8.435 19.447,18.804 l 0,0 0,28.634 c 0,10.367 -8.724,18.802 -19.447,18.802 l 0,0 0,-10e-4 z"
         id="path1572"
         inkscape:connector-curvature="0" /></clipPath><radialGradient
       fx="0"
       fy="0"
       cx="0"
       cy="0"
       r="1"
       gradientUnits="userSpaceOnUse"
       gradientTransform="matrix(-32.231003,0,0,32.231003,477.15137,245.68164)"
       spreadMethod="pad"
       id="radialGradient1578"><stop
         style="stop-opacity:1;stop-color:#ffffff"
         offset="0"
         id="stop1580" /><stop
         style="stop-opacity:1;stop-color:#3a9b55"
         offset="1"
         id="stop1582" /></radialGradient><clipPath
       clipPathUnits="userSpaceOnUse"
       id="clipPath1590"><path
         d="m 485.446,282.55 c -1.945,0 -3.123,-1.219 -3.122,-3.076 l 0,0 0,-14.431 c 0,-2.249 0.994,-3.786 2.65,-3.786 l 0,0 26.022,0 c 2.803,0 6.199,-3.175 6.199,-5.205 l 0,0 0,-11.119 c 0,-1.743 -2.951,-4.494 -5.018,-4.494 l 0,0 -6.919,0 0,12.478 c 0,1.172 -0.625,1.405 -1.391,0.519 l 0,0 -19.397,-22.504 c -0.765,-0.888 -0.746,-2.323 0.04,-3.188 l 0,0 19.316,-21.275 c 0.788,-0.868 1.432,-0.617 1.432,0.553 l 0,0 0,12.126 15.2,0 c 9.941,0 18.027,7.799 18.027,17.385 l 0,0 0,28.634 c 0,9.585 -8.086,17.383 -18.027,17.383 l 0,0 -35.012,0 z"
         id="path1592"
         inkscape:connector-curvature="0" /></clipPath><radialGradient
       fx="0"
       fy="0"
       cx="0"
       cy="0"
       r="1"
       gradientUnits="userSpaceOnUse"
       gradientTransform="matrix(-54.492798,0,0,54.492798,542.19141,253.59277)"
       spreadMethod="pad"
       id="radialGradient1598"><stop
         style="stop-opacity:1;stop-color:#54d66a"
         offset="0"
         id="stop1600" /><stop
         style="stop-opacity:1;stop-color:#007e1f"
         offset="1"
         id="stop1602" /></radialGradient><clipPath
       clipPathUnits="userSpaceOnUse"
       id="clipPath1610"><path
         d="M 0,477 580,477 580,0 0,0 0,477 z"
         id="path1612"
         inkscape:connector-curvature="0" /></clipPath><clipPath
       clipPathUnits="userSpaceOnUse"
       id="clipPath1626"><path
         d="m 134.806,51.909 c 0,-20.009 14.962,-36.901 34.803,-39.289 l 0,0 c 0.88,-0.106 1.895,0.263 2.713,0.991 l 0,0 c 0.962,0.852 1.492,2.025 1.492,3.305 l 0,0 0,17.962 c 0,2.566 -2.712,4.424 -4.025,4.922 l 0,0 c -5.004,1.898 -8.368,6.764 -8.368,12.109 l 0,0 c 0,7.147 5.815,12.966 12.964,12.966 l 0,0 c 7.15,0 12.964,-5.816 12.964,-12.966 l 0,0 c 0,-1.53 -0.3,-3.03 -0.826,-4.454 l 0,0 c -2.13,2.473 -6.315,7.335 -6.315,7.335 l 0,0 c -1.328,1.543 -2.604,1.296 -3.092,1.118 l 0,0 c -0.487,-0.178 -1.624,-0.811 -1.646,-2.847 l 0,0 -0.312,-28.715 c -0.025,-2.267 1.705,-4.351 3.937,-4.741 l 0,0 29.72,-5.23 c 2.026,-0.356 2.839,0.653 3.096,1.103 l 0,0 c 0.12,0.213 0.283,0.592 0.283,1.099 l 0,0 c 0,0.571 -0.208,1.299 -0.918,2.124 l 0,0 c 0,0 -5.213,6.057 -6.667,7.746 l 0,0 c 6.023,7.134 9.356,16.101 9.356,25.462 l 0,0 c 0,21.823 -17.756,39.58 -39.581,39.58 l 0,0 c -21.825,0 -39.578,-17.757 -39.578,-39.58"
         id="path1628"
         inkscape:connector-curvature="0" /></clipPath><radialGradient
       fx="0"
       fy="0"
       cx="0"
       cy="0"
       r="1"
       gradientUnits="userSpaceOnUse"
       gradientTransform="matrix(66.168106,0,0,66.168106,175.53418,16.916016)"
       spreadMethod="pad"
       id="radialGradient1634"><stop
         style="stop-opacity:1;stop-color:#ffffff"
         offset="0"
         id="stop1636" /><stop
         style="stop-opacity:1;stop-color:#3a9b55"
         offset="1"
         id="stop1638" /></radialGradient><clipPath
       clipPathUnits="userSpaceOnUse"
       id="clipPath1646"><path
         d="m 136.525,51.909 c 0,-19.364 14.537,-35.324 33.291,-37.581 l 0,0 c 0.752,-0.091 2.277,0.883 2.277,2.588 l 0,0 0,17.962 c 0,1.56 -1.984,2.961 -2.914,3.313 l 0,0 c -5.539,2.1 -9.478,7.443 -9.478,13.718 l 0,0 c 0,8.108 6.575,14.687 14.687,14.687 l 0,0 c 8.11,0 14.685,-6.579 14.685,-14.687 l 0,0 c 0,-2.779 -0.781,-5.369 -2.125,-7.582 l 0,0 -8.042,9.341 c -0.926,1.077 -1.696,0.795 -1.712,-0.625 l 0,0 -0.313,-28.716 c -0.016,-1.418 1.116,-2.783 2.514,-3.028 l 0,0 29.72,-5.228 c 1.399,-0.247 1.785,0.433 0.86,1.509 l 0,0 -7.617,8.845 c 6.135,6.727 9.888,15.66 9.888,25.484 l 0,0 c 0,20.909 -16.95,37.857 -37.86,37.857 l 0,0 c -20.909,0 -37.861,-16.948 -37.861,-37.857"
         id="path1648"
         inkscape:connector-curvature="0" /></clipPath><radialGradient
       fx="0"
       fy="0"
       cx="0"
       cy="0"
       r="1"
       gradientUnits="userSpaceOnUse"
       gradientTransform="matrix(64.838043,0,0,64.838043,134.80518,51.908203)"
       spreadMethod="pad"
       id="radialGradient1654"><stop
         style="stop-opacity:1;stop-color:#54d66a"
         offset="0"
         id="stop1656" /><stop
         style="stop-opacity:1;stop-color:#007e1f"
         offset="1"
         id="stop1658" /></radialGradient><clipPath
       clipPathUnits="userSpaceOnUse"
       id="clipPath1666"><path
         d="M 0,477 580,477 580,0 0,0 0,477 z"
         id="path1668"
         inkscape:connector-curvature="0" /></clipPath><clipPath
       clipPathUnits="userSpaceOnUse"
       id="clipPath1682"><path
         d="m 282.353,89.163 c -0.962,-0.854 -1.491,-2.028 -1.491,-3.308 l 0,0 0,-17.961 c 0,-2.564 2.712,-4.424 4.025,-4.921 l 0,0 c 5.004,-1.898 8.367,-6.765 8.367,-12.109 l 0,0 c 0,-7.149 -5.815,-12.966 -12.964,-12.966 l 0,0 c -7.149,0 -12.964,5.816 -12.964,12.966 l 0,0 c 0,1.529 0.3,3.029 0.825,4.454 l 0,0 c 2.132,-2.475 6.316,-7.335 6.316,-7.335 l 0,0 c 1.328,-1.544 2.603,-1.297 3.091,-1.118 l 0,0 c 0.487,0.177 1.623,0.81 1.646,2.845 l 0,0 0.313,28.716 c 0.025,2.267 -1.705,4.351 -3.938,4.742 l 0,0 -29.72,5.228 c -2.025,0.357 -2.839,-0.652 -3.095,-1.103 l 0,0 c -0.12,-0.211 -0.283,-0.591 -0.283,-1.1 l 0,0 c 0,-0.568 0.208,-1.299 0.918,-2.123 l 0,0 c 0,0 5.212,-6.056 6.667,-7.744 l 0,0 c -6.022,-7.137 -9.355,-16.103 -9.355,-25.463 l 0,0 c 0,-21.825 17.755,-39.581 39.58,-39.581 l 0,0 c 21.825,10e-4 39.58,17.757 39.58,39.582 l 0,0 c 0,20.01 -14.964,36.9 -34.806,39.288 l 0,0 c -0.098,0.012 -0.199,0.018 -0.3,0.018 l 0,0 c -0.804,0 -1.685,-0.363 -2.412,-1.007"
         id="path1684"
         inkscape:connector-curvature="0" /></clipPath><radialGradient
       fx="0"
       fy="0"
       cx="0"
       cy="0"
       r="1"
       gradientUnits="userSpaceOnUse"
       gradientTransform="matrix(-38.041016,0,0,-38.041016,275.28174,81.472656)"
       spreadMethod="pad"
       id="radialGradient1690"><stop
         style="stop-opacity:1;stop-color:#ffffff"
         offset="0"
         id="stop1692" /><stop
         style="stop-opacity:1;stop-color:#3a9b55"
         offset="1"
         id="stop1694" /></radialGradient><clipPath
       clipPathUnits="userSpaceOnUse"
       id="clipPath1702"><path
         d="m 282.583,85.857 0,-17.963 c 0,-1.559 1.983,-2.961 2.914,-3.312 l 0,0 c 5.539,-2.101 9.48,-7.444 9.48,-13.718 l 0,0 c 0,-8.109 -6.577,-14.688 -14.687,-14.688 l 0,0 c -8.11,0 -14.686,6.578 -14.686,14.688 l 0,0 c 0,2.778 0.78,5.368 2.125,7.581 l 0,0 8.042,-9.34 c 0.926,-1.076 1.697,-0.797 1.712,0.625 l 0,0 0.313,28.715 c 0.015,1.419 -1.117,2.784 -2.515,3.028 l 0,0 -29.72,5.229 c -1.398,0.246 -1.785,-0.434 -0.859,-1.511 l 0,0 7.616,-8.843 c -6.135,-6.726 -9.888,-15.66 -9.888,-25.483 l 0,0 c 0,-20.911 16.951,-37.858 37.86,-37.858 l 0,0 c 20.91,0 37.858,16.947 37.858,37.858 l 0,0 c 0,19.364 -14.535,35.323 -33.288,37.578 l 0,0 c -0.033,0.004 -0.068,0.006 -0.103,0.006 l 0,0 c -0.78,0 -2.174,-0.961 -2.174,-2.592"
         id="path1704"
         inkscape:connector-curvature="0" /></clipPath><radialGradient
       fx="0"
       fy="0"
       cx="0"
       cy="0"
       r="1"
       gradientUnits="userSpaceOnUse"
       gradientTransform="matrix(-64.836441,0,0,-64.836441,319.86914,50.863281)"
       spreadMethod="pad"
       id="radialGradient1710"><stop
         style="stop-opacity:1;stop-color:#54d66a"
         offset="0"
         id="stop1712" /><stop
         style="stop-opacity:1;stop-color:#007e1f"
         offset="1"
         id="stop1714" /></radialGradient><clipPath
       clipPathUnits="userSpaceOnUse"
       id="clipPath1722"><path
         d="M 0,477 580,477 580,0 0,0 0,477 z"
         id="path1724"
         inkscape:connector-curvature="0" /></clipPath><clipPath
       clipPathUnits="userSpaceOnUse"
       id="clipPath1738"><path
         d="m 368.496,75.819 c -0.694,-0.548 -1.151,-1.524 -1.217,-2.617 l 0,0 c -0.077,-1.284 0.379,-2.489 1.283,-3.393 l 0,0 12.7,-12.701 c 1.814,-1.815 5.047,-1.211 6.327,-0.636 l 0,0 c 4.88,2.198 10.699,1.135 14.48,-2.644 l 0,0 c 5.054,-5.055 5.054,-13.281 10e-4,-18.336 l 0,0 c -5.057,-5.057 -13.282,-5.053 -18.337,0 l 0,0 c -1.081,1.083 -1.931,2.355 -2.564,3.733 l 0,0 c 3.255,-0.241 9.652,-0.721 9.652,-0.721 l 0,0 c 2.029,-0.152 2.757,0.924 2.977,1.397 l 0,0 c 0.218,0.469 0.574,1.72 -0.85,3.175 l 0,0 -20.083,20.525 c -1.585,1.622 -4.282,1.871 -6.138,0.569 l 0,0 -24.714,-17.317 c -1.684,-1.181 -1.545,-2.47 -1.409,-2.969 l 0,0 c 0.065,-0.232 0.221,-0.619 0.578,-0.976 l 0,0 c 0.402,-0.405 1.065,-0.774 2.151,-0.855 l 0,0 c 0,0 7.968,-0.596 10.191,-0.763 l 0,0 c 0.785,-9.303 4.77,-18.001 11.388,-24.619 l 0,0 c 15.432,-15.433 40.543,-15.433 55.976,0 l 0,0 c 15.433,15.435 15.433,40.545 0.001,55.977 l 0,0 c -7.678,7.679 -17.824,11.592 -28.011,11.592 l 0,0 c -8.582,0 -17.193,-2.777 -24.382,-8.421"
         id="path1740"
         inkscape:connector-curvature="0" /></clipPath><radialGradient
       fx="0"
       fy="0"
       cx="0"
       cy="0"
       r="1"
       gradientUnits="userSpaceOnUse"
       gradientTransform="matrix(-20.226059,-20.226059,20.226059,-20.226059,372.97559,63.598633)"
       spreadMethod="pad"
       id="radialGradient1746"><stop
         style="stop-opacity:1;stop-color:#ffffff"
         offset="0"
         id="stop1748" /><stop
         style="stop-opacity:1;stop-color:#3a9b55"
         offset="1"
         id="stop1750" /></radialGradient><clipPath
       clipPathUnits="userSpaceOnUse"
       id="clipPath1758"><path
         d="m 369.563,74.465 c -0.598,-0.468 -0.989,-2.235 0.217,-3.44 l 0,0 c 3.229,-3.228 9.592,-9.591 12.701,-12.7 l 0,0 c 1.103,-1.104 3.497,-0.691 4.404,-0.282 l 0,0 c 5.4,2.432 11.963,1.437 16.401,-2.999 l 0,0 c 5.732,-5.731 5.734,-15.034 0,-20.767 l 0,0 c -5.735,-5.736 -15.035,-5.734 -20.77,0 l 0,0 c -1.965,1.965 -3.243,4.348 -3.858,6.863 l 0,0 12.293,-0.919 c 1.415,-0.106 1.761,0.638 0.769,1.652 l 0,0 -20.083,20.528 c -0.995,1.014 -2.759,1.178 -3.92,0.361 l 0,0 -24.714,-17.316 c -1.162,-0.815 -0.956,-1.569 0.459,-1.675 l 0,0 11.64,-0.869 c 0.42,-9.095 4.083,-18.067 11.029,-25.014 l 0,0 c 14.785,-14.784 38.755,-14.781 53.541,10e-4 l 0,0 c 14.785,14.785 14.787,38.758 0,53.542 l 0,0 c -7.389,7.391 -17.077,11.086 -26.762,11.086 l 0,0 c -8.257,0.001 -16.512,-2.684 -23.347,-8.052"
         id="path1760"
         inkscape:connector-curvature="0" /></clipPath><radialGradient
       fx="0"
       fy="0"
       cx="0"
       cy="0"
       r="1"
       gradientUnits="userSpaceOnUse"
       gradientTransform="matrix(-45.859955,-45.859955,45.859955,-45.859955,421.03906,72.603516)"
       spreadMethod="pad"
       id="radialGradient1766"><stop
         style="stop-opacity:1;stop-color:#54d66a"
         offset="0"
         id="stop1768" /><stop
         style="stop-opacity:1;stop-color:#007e1f"
         offset="1"
         id="stop1770" /></radialGradient><clipPath
       clipPathUnits="userSpaceOnUse"
       id="clipPath1778"><path
         d="M 0,477 580,477 580,0 0,0 0,477 z"
         id="path1780"
         inkscape:connector-curvature="0" /></clipPath><clipPath
       clipPathUnits="userSpaceOnUse"
       id="clipPath1794"><path
         d="m 91.676,99.764 c -0.547,-0.158 -1.188,-0.562 -1.782,-1.476 l 0,0 c 0,0 -4.357,-6.699 -5.571,-8.565 l 0,0 c -8.535,3.786 -18.077,4.479 -27.063,1.861 l 0,0 C 36.306,85.48 24.223,63.468 30.326,42.514 l 0,0 C 36.428,21.561 58.441,9.48 79.395,15.582 l 0,0 c 19.211,5.596 31.244,24.685 27.988,44.402 l 0,0 c -0.145,0.873 -0.782,1.744 -1.709,2.328 l 0,0 c -1.087,0.686 -2.363,0.864 -3.591,0.508 l 0,0 -17.245,-5.023 c -2.463,-0.717 -3.49,-3.841 -3.601,-5.241 l 0,0 C 80.815,47.22 77.084,42.631 71.952,41.136 l 0,0 c -6.864,-1.999 -14.075,1.958 -16.074,8.822 l 0,0 c -2,6.864 1.96,14.074 8.823,16.071 l 0,0 c 1.468,0.43 2.992,0.561 4.506,0.453 l 0,0 C 67.429,63.747 63.932,58.37 63.932,58.37 l 0,0 c -1.111,-1.707 -0.517,-2.864 -0.209,-3.282 l 0,0 c 0.307,-0.418 1.232,-1.333 3.193,-0.785 l 0,0 27.657,7.731 c 2.184,0.609 3.701,2.852 3.453,5.105 l 0,0 -3.29,29.997 C 94.511,99.18 93.315,99.68 92.811,99.8 l 0,0 c -0.122,0.029 -0.291,0.056 -0.492,0.056 l 0,0 c -0.189,0 -0.407,-0.024 -0.643,-0.092"
         id="path1796"
         inkscape:connector-curvature="0" /></clipPath><radialGradient
       fx="0"
       fy="0"
       cx="0"
       cy="0"
       r="1"
       gradientUnits="userSpaceOnUse"
       gradientTransform="matrix(-15.657791,53.766281,-53.766266,-15.657791,88.751465,66.138672)"
       spreadMethod="pad"
       id="radialGradient1802"><stop
         style="stop-opacity:1;stop-color:#ffffff"
         offset="0"
         id="stop1804" /><stop
         style="stop-opacity:1;stop-color:#3a9b55"
         offset="1"
         id="stop1806" /></radialGradient><clipPath
       clipPathUnits="userSpaceOnUse"
       id="clipPath1814"><path
         d="m 91.335,97.349 -6.364,-9.783 c -8.174,4.009 -17.801,5.113 -27.232,2.367 l 0,0 C 37.663,84.086 26.131,63.072 31.978,42.995 l 0,0 C 37.825,22.921 58.837,11.387 78.914,17.233 l 0,0 c 18.591,5.415 29.849,23.834 26.771,42.47 l 0,0 c -0.123,0.749 -1.484,1.94 -3.12,1.463 l 0,0 C 98.18,59.891 89.541,57.372 85.319,56.145 l 0,0 C 83.822,55.706 83.03,53.412 82.953,52.419 l 0,0 C 82.486,46.514 78.457,41.237 72.433,39.483 l 0,0 c -7.786,-2.269 -15.938,2.206 -18.207,9.992 l 0,0 c -2.269,7.787 2.208,15.939 9.994,18.207 l 0,0 c 2.667,0.776 5.372,0.751 7.874,0.08 l 0,0 -6.72,-10.332 C 64.6,56.239 65.085,55.578 66.453,55.959 l 0,0 27.657,7.729 c 1.367,0.384 2.36,1.851 2.204,3.262 l 0,0 -3.29,29.996 c -0.086,0.785 -0.359,1.189 -0.718,1.189 l 0,0 c -0.287,10e-4 -0.628,-0.257 -0.971,-0.786"
         id="path1816"
         inkscape:connector-curvature="0" /></clipPath><radialGradient
       fx="0"
       fy="0"
       cx="0"
       cy="0"
       r="1"
       gradientUnits="userSpaceOnUse"
       gradientTransform="matrix(-18.128876,62.251541,-62.251541,-18.128876,79.644043,15.226563)"
       spreadMethod="pad"
       id="radialGradient1822"><stop
         style="stop-opacity:1;stop-color:#54d66a"
         offset="0"
         id="stop1824" /><stop
         style="stop-opacity:1;stop-color:#007e1f"
         offset="1"
         id="stop1826" /></radialGradient><clipPath
       clipPathUnits="userSpaceOnUse"
       id="clipPath1834"><path
         d="M 0,477 580,477 580,0 0,0 0,477 z"
         id="path1836"
         inkscape:connector-curvature="0" /></clipPath></defs><sodipodi:namedview
     pagecolor="#ffffff"
     bordercolor="#666666"
     borderopacity="1"
     objecttolerance="10"
     gridtolerance="10"
     guidetolerance="10"
     inkscape:pageopacity="0"
     inkscape:pageshadow="2"
     inkscape:window-width="1600"
     inkscape:window-height="837"
     id="namedview4"
     showgrid="true"
     inkscape:zoom="27.458333"
     inkscape:cx="12.072838"
     inkscape:cy="14.208655"
     inkscape:window-x="-4"
     inkscape:window-y="-4"
     inkscape:window-maximized="1"
     inkscape:current-layer="g10"
     inkscape:showpageshadow="false"
     showguides="false"
     inkscape:snap-global="true"><inkscape:grid
       type="xygrid"
       id="grid5629"
       empspacing="5"
       visible="true"
       enabled="true"
       snapvisiblegridlinesonly="true" /></sodipodi:namedview><g
     id="g10"
     inkscape:groupmode="layer"
     inkscape:label="gr_arr"
     transform="matrix(1.25,0,0,-1.25,0,24)"><g
       id="g914"
       style="fill:#00b300;fill-opacity:1"
       transform="matrix(0.13125266,0,0,0.10057778,-38.525464,-1.6233739)"
       inkscape:export-filename="./g914.png"
       inkscape:export-xdpi="90"
       inkscape:export-ydpi="90"><g
         id="g916"
         clip-path="url(#clipPath918)"
         style="fill:#00b300;fill-opacity:1"><g
           id="g922"
           style="fill:#00b300;fill-opacity:1"><g
             id="g924"
             style="fill:#00b300;fill-opacity:1"><path
               d="m 418.227,153.327 c 0,0 -7.895,-13.3 -17.45,-13.565 l 0,0 c -10.058,-0.28 -20.382,-0.567 -20.382,-0.567 l 0,0 c -1.269,-0.035 -2.339,1.134 -2.381,2.596 l 0,0 -0.306,10.996 c -0.041,1.463 -0.784,1.791 -1.651,0.732 l 0,0 -20.645,-25.184 c -0.866,-1.058 -0.82,-2.75 0.106,-3.761 l 0,0 22.01,-23.996 c 0.927,-1.009 1.648,-0.638 1.61,0.824 l 0,0 -0.285,10.187 c -0.038,1.46 0.965,2.687 2.235,2.724 l 0,0 c 0,0 10.236,0.283 20.253,0.561 l 0,0 c 9.603,0.267 18.593,15.14 18.593,15.14 l 0,0 c 1.28,1.336 2.163,5.175 2.083,8.104 l 0,0 -0.394,14.184 c -0.027,0.971 -0.757,3.386 -1.748,3.386 l 0,0 c -0.501,0 -1.07,-0.62 -1.648,-2.361"
               style="fill:#00b300;fill-opacity:1;stroke:none"
               id="path932"
               inkscape:connector-curvature="0" /></g></g></g></g><g
       id="g970"
       style="fill:#c70000;fill-opacity:1"
       transform="matrix(0.13797634,0,0,0.10057828,-40.954452,-2.2826897)"><g
         id="g972"
         clip-path="url(#clipPath974)"
         style="fill:#c70000;fill-opacity:1"><g
           id="g978"
           style="fill:#c70000;fill-opacity:1"><g
             id="g980"
             style="fill:#c70000;fill-opacity:1"><path
               d="m 397.684,203.515 0.282,-10.186 c 0.04,-1.46 -0.963,-2.686 -2.232,-2.723 l 0,0 c 0,0 -10.237,-0.283 -20.256,-0.562 l 0,0 c -9.599,-0.266 -18.591,-15.14 -18.591,-15.14 l 0,0 c -1.282,-1.335 -2.166,-5.176 -2.084,-8.103 l 0,0 0.395,-14.184 c 0.041,-1.463 1.678,-6.205 3.394,-1.026 l 0,0 c 0,0 7.897,13.302 17.451,13.566 l 0,0 c 10.06,0.28 20.382,0.567 20.382,0.567 l 0,0 c 1.27,0.033 2.341,-1.134 2.381,-2.596 l 0,0 0.306,-10.996 c 0.042,-1.463 0.784,-1.792 1.653,-0.734 l 0,0 20.643,25.184 c 0.868,1.058 0.821,2.751 -0.106,3.761 l 0,0 -22.01,23.997 c -0.353,0.384 -0.676,0.568 -0.939,0.568 l 0,0 c -0.427,0.001 -0.694,-0.487 -0.669,-1.393"
               style="fill:#c70000;fill-opacity:1;stroke:none"
               id="path988"
               inkscape:connector-curvature="0" /></g></g></g></g></g></svg>