/* XPM */
static char * TIBEventalerter.xpm_xpm[] = {
"24 24 492 2",
"  	c #4C7CB5",
". 	c #4F7EB6",
"+ 	c #5381B8",
"@ 	c #5683BA",
"# 	c #5A86BB",
"$ 	c #5E89BC",
"% 	c #618CBE",
"& 	c #6D8DB3",
"* 	c #798DA1",
"= 	c #818C94",
"- 	c #858B8A",
"; 	c #878A86",
"> 	c #888A85",
", 	c #878A85",
"' 	c #878B89",
") 	c #879094",
"! 	c #889CB2",
"~ 	c #8CABCF",
"{ 	c #8FADD1",
"] 	c #93B0D3",
"^ 	c #97B3D4",
"/ 	c #9BB6D5",
"( 	c #9FB8D7",
"_ 	c None",
": 	c #5783B9",
"< 	c #5E8ABC",
"[ 	c #698BB2",
"} 	c #7E8B95",
"| 	c #979994",
"1 	c #A1A29E",
"2 	c #B1B2AF",
"3 	c #AEAEAB",
"4 	c #B2B2AF",
"5 	c #A6A6A3",
"6 	c #A3A3A0",
"7 	c #C0C1BE",
"8 	c #ACADA9",
"9 	c #8F8682",
"0 	c #6F1F1E",
"a 	c #878D9E",
"b 	c #97B2D4",
"c 	c #9AB3D3",
"d 	c #9EB8D7",
"e 	c #A6BEDA",
"f 	c #5684B9",
"g 	c #5A87BB",
"h 	c #6F8BA9",
"i 	c #8A8C87",
"j 	c #B6B6B3",
"k 	c #B4B4B2",
"l 	c #90928F",
"m 	c #8D8E8B",
"n 	c #888986",
"o 	c #838481",
"p 	c #818280",
"q 	c #898B88",
"r 	c #8F908D",
"s 	c #974A49",
"t 	c #9B0202",
"u 	c #853836",
"v 	c #8F9BA5",
"w 	c #9FB9D7",
"x 	c #A2BBD8",
"y 	c #AAC1DC",
"z 	c #5784B9",
"A 	c #5E89BD",
"B 	c #6A8BB1",
"C 	c #8C8D89",
"D 	c #BABAB7",
"E 	c #8B8C8A",
"F 	c #868784",
"G 	c #848583",
"H 	c #82827F",
"I 	c #818380",
"J 	c #75615E",
"K 	c #A40000",
"L 	c #E34343",
"M 	c #970000",
"N 	c #836966",
"O 	c #97A7B7",
"P 	c #A5BCD8",
"Q 	c #AAC1DB",
"R 	c #AEC3DD",
"S 	c #5B86BB",
"T 	c #7D8B97",
"U 	c #B9BAB7",
"V 	c #878885",
"W 	c #8A8B88",
"X 	c #888A87",
"Y 	c #868885",
"Z 	c #848683",
"` 	c #838582",
" .	c #828380",
"..	c #80817D",
"+.	c #7E807D",
"@.	c #7A2423",
"#.	c #D83C3C",
"$.	c #FDFDFD",
"%.	c #D83D3D",
"&.	c #872C2B",
"*.	c #858986",
"=.	c #AABEDA",
"-.	c #ADC3DE",
";.	c #B1C6DE",
">.	c #628CBE",
",.	c #668FC0",
"'.	c #868A88",
").	c #898A87",
"!.	c #878986",
"~.	c #848582",
"{.	c #80827F",
"].	c #7F7F7C",
"^.	c #7D7F7B",
"/.	c #705857",
"(.	c #B00000",
"_.	c #D49494",
":.	c #204C4C",
"<.	c #AF0000",
"[.	c #765E5B",
"}.	c #B0C2DB",
"|.	c #B5C9E0",
"1.	c #658FC0",
"2.	c #6991C1",
"3.	c #7B7E7B",
"4.	c #A0A19E",
"5.	c #828481",
"6.	c #7F807D",
"7.	c #7E7F7C",
"8.	c #7C7D7B",
"9.	c #787B79",
"0.	c #7C2222",
"a.	c #E53F3F",
"b.	c #D4E3E3",
"c.	c #000000",
"d.	c #D6E8E8",
"e.	c #E03F3F",
"f.	c #7D2220",
"g.	c #AEC5DE",
"h.	c #B5C9E1",
"i.	c #B9CCE2",
"j.	c #6992C2",
"k.	c #6E95C3",
"l.	c #767976",
"m.	c #9FA09D",
"n.	c #838482",
"o.	c #81827F",
"p.	c #7F817E",
"q.	c #7E807C",
"r.	c #7B7C79",
"s.	c #787B77",
"t.	c #725552",
"u.	c #A20000",
"v.	c #FDC5C5",
"w.	c #D5EBEB",
"x.	c #161313",
"y.	c #D8F0F0",
"z.	c #FEC0C0",
"A.	c #A10000",
"B.	c #9E8D9E",
"C.	c #B9CBE2",
"D.	c #BDCFE4",
"E.	c #6992C1",
"F.	c #6D95C3",
"G.	c #7197C4",
"H.	c #797C78",
"I.	c #969794",
"J.	c #7F827E",
"K.	c #7D7F7D",
"L.	c #7C7E7B",
"M.	c #7B7D79",
"N.	c #797B78",
"O.	c #787976",
"P.	c #767775",
"Q.	c #7D1716",
"R.	c #D22929",
"S.	c #FEFEFE",
"T.	c #D7DCDC",
"U.	c #423F3F",
"V.	c #D8E3E3",
"W.	c #D12B2B",
"X.	c #8A282C",
"Y.	c #BCCEE4",
"Z.	c #C0D1E5",
"`.	c #6D95C2",
" +	c #759AC6",
".+	c #7D807C",
"++	c #8B8C89",
"@+	c #8C928F",
"#+	c #8F9D9E",
"$+	c #929897",
"%+	c #848684",
"&+	c #787A76",
"*+	c #777875",
"=+	c #757673",
"-+	c #744E4C",
";+	c #A90000",
">+	c #F3A4A4",
",+	c #F6FFFF",
"'+	c #EFE8E8",
")+	c #B0AFAF",
"!+	c #EFEEEE",
"~+	c #F5FFFF",
"{+	c #F2A4A4",
"]+	c #A80000",
"^+	c #A68996",
"/+	c #C5D4E7",
"(+	c #749AC6",
"_+	c #799CC7",
":+	c #6B6E6D",
"<+	c #929695",
"[+	c #879597",
"}+	c #B6BCBC",
"|+	c #9BAAAB",
"1+	c #959C9B",
"2+	c #A1A3A0",
"3+	c #979895",
"4+	c #8E2625",
"5+	c #D82A2A",
"6+	c #F5FDFD",
"7+	c #FFFFFF",
"8+	c #C4CBCB",
"9+	c #FEFFFF",
"0+	c #F4FFFF",
"a+	c #D72A2A",
"b+	c #983539",
"c+	c #C8D7E9",
"d+	c #799DC8",
"e+	c #7B9FC8",
"f+	c #7C8180",
"g+	c #76888A",
"h+	c #BAC0C1",
"i+	c #C3C5C4",
"j+	c #BABFBE",
"k+	c #95A3A6",
"l+	c #7B8280",
"m+	c #6A1414",
"n+	c #AE0606",
"o+	c #FEB2B2",
"p+	c #FBFFFF",
"q+	c #FAFFFF",
"r+	c #FDFFFF",
"s+	c #AD0A0B",
"t+	c #CCDAEA",
"u+	c #789DC7",
"v+	c #7B9EC8",
"w+	c #7B9FC5",
"x+	c #809194",
"y+	c #BAC3C4",
"z+	c #ACB5B6",
"A+	c #AAB6B8",
"B+	c #B7C2C2",
"C+	c #B4BFBF",
"D+	c #8A9C9F",
"E+	c #757C7B",
"F+	c #820E0E",
"G+	c #AF0403",
"H+	c #C90707",
"I+	c #C50606",
"J+	c #C50707",
"K+	c #C70909",
"L+	c #CE0F0F",
"M+	c #C60707",
"N+	c #B30708",
"O+	c #D0DCEB",
"P+	c #7C9FC9",
"Q+	c #7CA1C7",
"R+	c #83A7C4",
"S+	c #ACB5B7",
"T+	c #BBBEBE",
"U+	c #AC9B9B",
"V+	c #9A7676",
"W+	c #96696A",
"X+	c #99787A",
"Y+	c #A19E9F",
"Z+	c #84989B",
"`+	c #787F7E",
" @	c #777976",
".@	c #797A77",
"+@	c #6E706E",
"@@	c #676A69",
"#@	c #6A6D6C",
"$@	c #737673",
"%@	c #C2CEDE",
"&@	c #CCD9E8",
"*@	c #D4DFED",
"=@	c #7EA2CA",
"-@	c #86ABC9",
";@	c #AEC4D6",
">@	c #B1B9BA",
",@	c #A7AEAE",
"'@	c #9D9B9C",
")@	c #9A9596",
"!@	c #9A797A",
"~@	c #974A4B",
"{@	c #8E3A3B",
"]@	c #948E90",
"^@	c #6D8286",
"/@	c #465153",
"(@	c #434848",
"_@	c #5E615F",
":@	c #6B6F6D",
"<@	c #939490",
"[@	c #90918E",
"}@	c #8F918D",
"|@	c #7E817D",
"1@	c #C2CDDB",
"2@	c #CFDAE8",
"3@	c #D8E2EE",
"4@	c #8AAECC",
"5@	c #B3C9DC",
"6@	c #B7C9DA",
"7@	c #A2AFB3",
"8@	c #ACBABC",
"9@	c #859A9F",
"0@	c #6A858B",
"a@	c #8BA7AA",
"b@	c #A98283",
"c@	c #B55656",
"d@	c #AD7E7F",
"e@	c #C2CCCD",
"f@	c #9EADB0",
"g@	c #949D9A",
"h@	c #9A9B98",
"i@	c #8E8F8B",
"j@	c #7D7E7B",
"k@	c #959693",
"l@	c #727677",
"m@	c #C4CFDC",
"n@	c #D3DDE9",
"o@	c #DBE5F0",
"p@	c #BCCEE1",
"q@	c #C1D1E1",
"r@	c #B7CADB",
"s@	c #A2B6C2",
"t@	c #647F86",
"u@	c #6C878F",
"v@	c #768E93",
"w@	c #88A6AC",
"x@	c #B27C7C",
"y@	c #AD4A4A",
"z@	c #9F8686",
"A@	c #BAC2C2",
"B@	c #BDC2C0",
"C@	c #95A3A5",
"D@	c #7C8381",
"E@	c #80817E",
"F@	c #676B69",
"G@	c #ACB4BC",
"H@	c #C9D3DF",
"I@	c #D6DFEB",
"J@	c #DFE8F2",
"K@	c #BDD0E2",
"L@	c #C3D3E3",
"M@	c #B6C8D9",
"N@	c #5A89A1",
"O@	c #638B9B",
"P@	c #74898E",
"Q@	c #74969C",
"R@	c #A5888A",
"S@	c #BD6162",
"T@	c #9C7878",
"U@	c #A6B6B6",
"V@	c #B5BBBB",
"W@	c #B7BBBA",
"X@	c #8D9A9D",
"Y@	c #767C7B",
"Z@	c #7C7D7A",
"`@	c #646766",
" #	c #9AA1A6",
".#	c #BFC9D4",
"+#	c #D0D9E4",
"@#	c #DBE4EE",
"##	c #E3EAF3",
"$#	c #91B3CF",
"%#	c #BCCFE1",
"&#	c #A3BBCF",
"*#	c #4B85A1",
"=#	c #6E97AE",
"-#	c #95AAB6",
";#	c #A17377",
">#	c #AA6364",
",#	c #8D8A8D",
"'#	c #9CADAF",
")#	c #A9B3B3",
"!#	c #B3B9B9",
"~#	c #8C9B9E",
"{#	c #777E7D",
"]#	c #6D706E",
"^#	c #727676",
"/#	c #9AA1A9",
"(#	c #B9C2CE",
"_#	c #CDD6E1",
":#	c #D9E1EC",
"<#	c #E1EAF2",
"[#	c #E6EDF5",
"}#	c #90AFD0",
"|#	c #96B6D1",
"1#	c #B3C8D8",
"2#	c #4E8AA7",
"3#	c #6399B2",
"4#	c #8EA7B9",
"5#	c #9E9DAA",
"6#	c #97ADB6",
"7#	c #92A5AA",
"8#	c #9BA5A9",
"9#	c #A0A9AA",
"0#	c #6C7F83",
"a#	c #455052",
"b#	c #404546",
"c#	c #54585A",
"d#	c #5F6568",
"e#	c #848B91",
"f#	c #A3ADB8",
"g#	c #B9C2CD",
"h#	c #CDD6E0",
"i#	c #D8E1EB",
"j#	c #E0E8F1",
"k#	c #E7EDF5",
"l#	c #EAF0F7",
"m#	c #97B4D4",
"n#	c #9CBCD3",
"o#	c #9FBBCD",
"p#	c #6A9CB5",
"q#	c #609BB4",
"r#	c #6C9EB5",
"s#	c #80A4B6",
"t#	c #9EB1BC",
"u#	c #B3BFC9",
"v#	c #8EA5B1",
"w#	c #798A98",
"x#	c #555D65",
"y#	c #5E646D",
"z#	c #919AA7",
"A#	c #A0A9B5",
"B#	c #B6BFCB",
"C#	c #C2CCD8",
"D#	c #D0DAE4",
"E#	c #DAE3EC",
"F#	c #EAEFF7",
"G#	c #EEF2F8",
"H#	c #9EB9D7",
"I#	c #A0BFD6",
"J#	c #C7D6E4",
"K#	c #CCD7E3",
"L#	c #CBD7E2",
"M#	c #CFDBE6",
"N#	c #CDDAE5",
"O#	c #ADC6D5",
"P#	c #AEC2D5",
"Q#	c #B5C4D6",
"R#	c #ADBAC9",
"S#	c #B3BECD",
"T#	c #C4D0DF",
"U#	c #CAD4E1",
"V#	c #CED9E4",
"W#	c #D6E0EB",
"X#	c #DDE5F0",
"Y#	c #E1E9F2",
"Z#	c #EAF0F6",
"`#	c #F2F6FA",
" $	c #A5BFDA",
".$	c #A5C1D7",
"+$	c #CADAE7",
"@$	c #D9E3EE",
"#$	c #D3E0EB",
"$$	c #B3CBDB",
"%$	c #B8CDE1",
"&$	c #C3D3E6",
"*$	c #C8D7E8",
"=$	c #CCD9E9",
"-$	c #D0DCEC",
";$	c #D3DFED",
">$	c #D7E2EE",
",$	c #DFE7F2",
"'$	c #E2EBF3",
")$	c #EEF3F7",
"!$	c #F2F6F9",
"~$	c #F6F8FB",
"{$	c #A6BEDB",
"]$	c #A9C1DC",
"^$	c #ACC4DD",
"/$	c #ACC6D9",
"($	c #D0DEEA",
"_$	c #B6CEDF",
":$	c #B8CEE2",
"<$	c #CCDAE9",
"[$	c #D7E1EF",
"}$	c #DFE8F1",
"|$	c #E7EDF4",
"1$	c #F2F5F9",
"2$	c #F5F8FB",
"3$	c #FAFBFC",
"  . + @ # $ % & * = - ; > , ' ) ! ~ { ] ^ / ( _ ",
". + : # < [ } | 1 2 3 4 5 6 7 8 9 0 a b c d _ e ",
"+ f g $ h i j k l m n o p o q r s t u v w x e y ",
"z # A B C D r p E q n F G H I J K L M N O P Q R ",
"S $ % T U o V W X Y Z `  ...+.@.#.$.%.&.*.=.-.;.",
"$ >.,.'.U Y ).!.F ~. .{.].^./.(._.:._.<.[.R }.|.",
">.1.2.3.4.!.F ~.5.p 6.7.8.9.0.a.b.c.d.e.f.g.h.i.",
"1.j.k.l.m.Z n.o.p.q.8.r.s.t.u.v.w.x.y.z.A.B.C.D.",
"E.F.G.H.I.W J.K.L.M.N.O.P.Q.R.S.T.U.V.S.W.X.Y.Z.",
"`.G. +.+++@+#+$+%+&+*+=+-+;+>+,+'+)+!+~+{+]+^+/+",
"G.(+_+:+<+[+}+|+1+2+4.3+4+5+6+7+8+c.8+9+0+a+b+c+",
" +d+e+f+g+h+i+j+k+l++.m+n+o+9+9+p+b.q+r+7+o+s+t+",
"u+v+w+x+y+z+A+B+C+D+E+F+G+H+I+J+K+L+K+J+M+H+N+O+",
"P+Q+R+S+T+U+V+W+X+Y+Z+`+ @.@+@@@#@$@).I.M.%@&@*@",
"=@-@;@>@,@'@)@!@~@{@]@^@/@(@_@:@<@[@}@++|@1@2@3@",
"4@5@6@7@8@9@0@a@b@c@d@e@f@g@2+h@i@7.j@k@l@m@n@o@",
"p@q@r@s@t@u@v@w@x@y@z@A@B@C@D@n E@F m F@G@H@I@J@",
"K@L@M@N@O@P@Q@R@S@T@U@V@W@X@Y@Z@6.@@`@ #.#+#@###",
"$#%#&#*#=#-#;#>#,#'#)#!#~#{#]#@@#@^#/#(#_#:#<#[#",
"}#|#1#2#3#4#5#6#7#8#9#0#a#b#c#d#e#f#g#h#i#j#k#l#",
"b m#n#o#p#q#r#s#t#u#v#w#x#y#z#A#B#C#D#E#<#k#F#G#",
"/ ( H#I#J#K#L#M#N#O#P#Q#R#S#T#U#V#W#X#Y#[#Z#G#`#",
"w x e  $.$+$@$#$$$%$&$*$=$-$;$>$o@,$'$k#Z#)$!$~$",
"_ {$]$R ^$/$($_$:$&$*$<$-$*@[$o@}$##|$F#G#1$2$3$"};
